<svg xmlns="http://www.w3.org/2000/svg" width="2087" height="332" viewBox="0 0 2087 332" fill="none">
<mask id="mask0_2696_18237" style="mask-type:alpha" maskUnits="userSpaceOnUse" x="0" y="0" width="2087" height="332">
<rect width="2087" height="332" fill="#1C1C1B"/>
</mask>
<g xmlns="http://www.w3.org/2000/svg" mask="url(#mask0_2696_18237)">
<mask id="path-2-inside-1_2696_18237" fill="white">
<path d="M1117.87 -69.2324L489.576 559.064L459.171 528.659L1087.47 -99.638L1117.87 -69.2324Z"/>
</mask>
<path d="M1117.87 -69.2324L489.576 559.064L459.171 528.659L1087.47 -99.638L1117.87 -69.2324Z" fill="#714EF5" fill-opacity="0.33"/>
<path d="M1119.29 -67.8182L490.99 560.479L488.162 557.65L1116.46 -70.6466L1119.29 -67.8182ZM457.756 527.245L1086.05 -101.052L1088.88 -98.2238L460.585 530.073L457.756 527.245ZM1087.47 -99.638L1117.87 -69.2324L1087.47 -99.638ZM489.576 559.064L459.171 528.659L489.576 559.064Z" fill="url(#paint0_linear_2696_18237)" mask="url(#path-2-inside-1_2696_18237)"/>
<mask id="path-4-inside-2_2696_18237" fill="white">
<path d="M551.738 413.25L1040.35 -75.3625L1103.37 -12.34L614.761 476.272L551.738 413.25Z"/>
</mask>
<path d="M550.324 411.836L1038.94 -76.7767L1041.76 -73.9483L553.152 414.664L550.324 411.836ZM1104.79 -10.9258L616.175 477.687L613.347 474.858L1101.96 -13.7542L1104.79 -10.9258ZM614.761 476.272L551.738 413.25L614.761 476.272ZM1040.35 -75.3625L1103.37 -12.34L1040.35 -75.3625Z" fill="url(#paint1_linear_2696_18237)" mask="url(#path-4-inside-2_2696_18237)"/>
<g id="line2text">

<path d="M453.241 555.245L452.261 554.265L455.295 551.231L466.449 562.385L465.182 563.652L455.008 553.478L453.241 555.245Z" fill="url(#paint2_linear_2696_18237)"/>
<path d="M463.555 553.923C461.771 552.139 460.702 550.439 460.347 548.823C459.993 547.208 460.63 545.585 462.26 543.955C463.89 542.325 465.513 541.687 467.129 542.041C468.745 542.396 470.445 543.465 472.229 545.249C474.043 547.064 475.133 548.785 475.498 550.411C475.863 552.037 475.231 553.665 473.601 555.295C471.959 556.937 470.325 557.576 468.699 557.211C467.084 556.834 465.37 555.738 463.555 553.923ZM470.997 546.481C470.033 545.516 469.141 544.779 468.323 544.27C467.504 543.761 466.667 543.53 465.81 543.578C464.954 543.626 464.097 544.078 463.24 544.935C462.384 545.791 461.932 546.648 461.884 547.504C461.836 548.361 462.067 549.199 462.576 550.017C463.085 550.835 463.822 551.727 464.786 552.691C465.782 553.687 466.694 554.444 467.523 554.964C468.341 555.473 469.179 555.704 470.035 555.656C470.892 555.608 471.749 555.156 472.605 554.3C473.462 553.443 473.914 552.586 473.962 551.73C474.009 550.873 473.779 550.036 473.27 549.217C472.75 548.388 471.993 547.476 470.997 546.481Z" fill="url(#paint3_linear_2696_18237)"/>
<path d="M474.552 542.925C472.769 541.141 471.699 539.442 471.345 537.826C470.99 536.21 471.628 534.587 473.258 532.957C474.888 531.327 476.511 530.689 478.127 531.044C479.742 531.399 481.442 532.468 483.226 534.252C485.041 536.066 486.131 537.787 486.496 539.413C486.861 541.039 486.228 542.668 484.598 544.298C482.956 545.94 481.322 546.578 479.696 546.213C478.082 545.836 476.367 544.74 474.552 542.925ZM481.995 535.483C481.03 534.519 480.139 533.782 479.32 533.273C478.502 532.764 477.664 532.533 476.808 532.581C475.951 532.628 475.095 533.08 474.238 533.937C473.381 534.794 472.929 535.65 472.881 536.507C472.834 537.364 473.064 538.201 473.574 539.019C474.083 539.838 474.819 540.729 475.784 541.694C476.779 542.689 477.692 543.447 478.52 543.966C479.339 544.475 480.176 544.706 481.033 544.658C481.89 544.611 482.746 544.159 483.603 543.302C484.459 542.445 484.912 541.589 484.959 540.732C485.007 539.876 484.776 539.038 484.267 538.22C483.748 537.391 482.99 536.479 481.995 535.483Z" fill="url(#paint4_linear_2696_18237)"/>
<path d="M485.345 523.141L484.365 522.161L487.399 519.127L498.553 530.281L497.286 531.548L487.112 521.374L485.345 523.141Z" fill="url(#paint5_linear_2696_18237)"/>
<path d="M495.659 521.819C493.875 520.035 492.806 518.335 492.451 516.72C492.096 515.104 492.734 513.481 494.364 511.851C495.994 510.221 497.617 509.583 499.233 509.938C500.849 510.292 502.548 511.362 504.332 513.145C506.147 514.96 507.237 516.681 507.602 518.307C507.967 519.933 507.335 521.561 505.705 523.191C504.063 524.833 502.429 525.472 500.802 525.107C499.188 524.73 497.474 523.634 495.659 521.819ZM503.101 514.377C502.136 513.412 501.245 512.676 500.426 512.166C499.608 511.657 498.771 511.427 497.914 511.474C497.057 511.522 496.201 511.974 495.344 512.831C494.487 513.688 494.035 514.544 493.988 515.401C493.94 516.257 494.171 517.095 494.68 517.913C495.189 518.732 495.926 519.623 496.89 520.588C497.886 521.583 498.798 522.341 499.627 522.86C500.445 523.369 501.283 523.6 502.139 523.552C502.996 523.505 503.852 523.052 504.709 522.196C505.566 521.339 506.018 520.482 506.065 519.626C506.113 518.769 505.882 517.932 505.373 517.113C504.854 516.285 504.096 515.372 503.101 514.377Z" fill="url(#paint6_linear_2696_18237)"/>
<path d="M506.656 510.821C504.872 509.038 503.803 507.338 503.449 505.722C503.094 504.106 503.732 502.483 505.362 500.853C506.992 499.223 508.615 498.586 510.23 498.94C511.846 499.295 513.546 500.364 515.33 502.148C517.145 503.963 518.235 505.683 518.6 507.309C518.965 508.936 518.332 510.564 516.702 512.194C515.06 513.836 513.426 514.474 511.8 514.109C510.186 513.732 508.471 512.636 506.656 510.821ZM514.098 503.379C513.134 502.415 512.242 501.678 511.424 501.169C510.606 500.66 509.768 500.429 508.912 500.477C508.055 500.524 507.198 500.977 506.342 501.833C505.485 502.69 505.033 503.547 504.985 504.403C504.938 505.26 505.168 506.097 505.677 506.916C506.186 507.734 506.923 508.626 507.888 509.59C508.883 510.586 509.795 511.343 510.624 511.863C511.443 512.372 512.28 512.602 513.137 512.555C513.993 512.507 514.85 512.055 515.707 511.198C516.563 510.342 517.015 509.485 517.063 508.628C517.111 507.772 516.88 506.934 516.371 506.116C515.852 505.287 515.094 504.375 514.098 503.379Z" fill="url(#paint7_linear_2696_18237)"/>
<path d="M517.449 491.037L516.469 490.057L519.503 487.023L530.656 498.177L529.389 499.444L519.215 489.271L517.449 491.037Z" fill="url(#paint8_linear_2696_18237)"/>
<path d="M527.762 489.715C525.979 487.931 524.909 486.232 524.555 484.616C524.2 483 524.838 481.377 526.468 479.747C528.098 478.117 529.721 477.479 531.337 477.834C532.952 478.189 534.652 479.258 536.436 481.042C538.251 482.857 539.341 484.577 539.706 486.203C540.071 487.829 539.438 489.458 537.808 491.088C536.166 492.73 534.532 493.368 532.906 493.003C531.292 492.626 529.577 491.53 527.762 489.715ZM535.205 482.273C534.24 481.309 533.349 480.572 532.53 480.063C531.712 479.554 530.874 479.323 530.018 479.371C529.161 479.418 528.305 479.87 527.448 480.727C526.591 481.584 526.139 482.44 526.091 483.297C526.044 484.154 526.274 484.991 526.783 485.809C527.293 486.628 528.029 487.519 528.994 488.484C529.989 489.479 530.902 490.237 531.73 490.756C532.549 491.265 533.386 491.496 534.243 491.448C535.099 491.401 535.956 490.949 536.813 490.092C537.669 489.235 538.122 488.379 538.169 487.522C538.217 486.666 537.986 485.828 537.477 485.01C536.958 484.181 536.2 483.269 535.205 482.273Z" fill="url(#paint9_linear_2696_18237)"/>
<path d="M538.76 478.718C536.976 476.934 535.907 475.234 535.552 473.618C535.198 472.002 535.835 470.38 537.465 468.749C539.095 467.119 540.718 466.482 542.334 466.836C543.95 467.191 545.65 468.26 547.434 470.044C549.248 471.859 550.338 473.58 550.703 475.206C551.068 476.832 550.436 478.46 548.806 480.09C547.164 481.732 545.53 482.37 543.904 482.005C542.289 481.629 540.575 480.533 538.76 478.718ZM546.202 471.276C545.238 470.311 544.346 469.574 543.528 469.065C542.709 468.556 541.872 468.325 541.015 468.373C540.159 468.421 539.302 468.873 538.445 469.73C537.589 470.586 537.137 471.443 537.089 472.299C537.041 473.156 537.272 473.994 537.781 474.812C538.29 475.63 539.027 476.522 539.991 477.486C540.987 478.482 541.899 479.239 542.728 479.759C543.546 480.268 544.384 480.499 545.24 480.451C546.097 480.403 546.954 479.951 547.81 479.094C548.667 478.238 549.119 477.381 549.167 476.525C549.214 475.668 548.984 474.831 548.475 474.012C547.955 473.183 547.198 472.271 546.202 471.276Z" fill="url(#paint10_linear_2696_18237)"/>
<path d="M549.552 458.934L548.572 457.954L551.606 454.92L562.76 466.074L561.493 467.341L551.319 457.167L549.552 458.934Z" fill="url(#paint11_linear_2696_18237)"/>
<path d="M559.866 457.612C558.082 455.828 557.013 454.128 556.658 452.512C556.304 450.896 556.942 449.273 558.572 447.643C560.202 446.013 561.825 445.376 563.44 445.73C565.056 446.085 566.756 447.154 568.54 448.938C570.355 450.753 571.445 452.473 571.81 454.1C572.175 455.726 571.542 457.354 569.912 458.984C568.27 460.626 566.636 461.264 565.01 460.899C563.396 460.522 561.681 459.426 559.866 457.612ZM567.308 450.169C566.344 449.205 565.452 448.468 564.634 447.959C563.816 447.45 562.978 447.219 562.121 447.267C561.265 447.315 560.408 447.767 559.552 448.623C558.695 449.48 558.243 450.337 558.195 451.193C558.147 452.05 558.378 452.887 558.887 453.706C559.396 454.524 560.133 455.416 561.098 456.38C562.093 457.376 563.005 458.133 563.834 458.653C564.653 459.162 565.49 459.392 566.347 459.345C567.203 459.297 568.06 458.845 568.917 457.988C569.773 457.132 570.225 456.275 570.273 455.418C570.321 454.562 570.09 453.724 569.581 452.906C569.061 452.077 568.304 451.165 567.308 450.169Z" fill="url(#paint12_linear_2696_18237)"/>
<path d="M570.864 446.614C569.08 444.83 568.011 443.13 567.656 441.515C567.301 439.899 567.939 438.276 569.569 436.646C571.199 435.016 572.822 434.378 574.438 434.733C576.054 435.087 577.754 436.157 579.537 437.94C581.352 439.755 582.442 441.476 582.807 443.102C583.172 444.728 582.54 446.356 580.91 447.986C579.268 449.628 577.634 450.267 576.007 449.902C574.393 449.525 572.679 448.429 570.864 446.614ZM578.306 439.172C577.341 438.207 576.45 437.47 575.632 436.961C574.813 436.452 573.976 436.222 573.119 436.269C572.262 436.317 571.406 436.769 570.549 437.626C569.692 438.482 569.24 439.339 569.193 440.196C569.145 441.052 569.376 441.89 569.885 442.708C570.394 443.527 571.131 444.418 572.095 445.383C573.091 446.378 574.003 447.136 574.832 447.655C575.65 448.164 576.488 448.395 577.344 448.347C578.201 448.3 579.057 447.847 579.914 446.991C580.771 446.134 581.223 445.277 581.271 444.421C581.318 443.564 581.088 442.727 580.578 441.908C580.059 441.08 579.301 440.167 578.306 439.172Z" fill="url(#paint13_linear_2696_18237)"/>
<path d="M581.656 426.83L580.676 425.85L583.71 422.816L594.864 433.97L593.597 435.237L583.423 425.063L581.656 426.83Z" fill="url(#paint14_linear_2696_18237)"/>
<path d="M591.97 425.508C590.186 423.724 589.117 422.024 588.762 420.408C588.408 418.792 589.045 417.17 590.675 415.54C592.305 413.91 593.928 413.272 595.544 413.626C597.16 413.981 598.86 415.05 600.644 416.834C602.458 418.649 603.548 420.37 603.913 421.996C604.278 423.622 603.646 425.25 602.016 426.88C600.374 428.522 598.74 429.16 597.114 428.795C595.499 428.419 593.785 427.323 591.97 425.508ZM599.412 418.066C598.448 417.101 597.556 416.364 596.738 415.855C595.919 415.346 595.082 415.115 594.225 415.163C593.369 415.211 592.512 415.663 591.655 416.52C590.799 417.376 590.347 418.233 590.299 419.089C590.251 419.946 590.482 420.784 590.991 421.602C591.5 422.42 592.237 423.312 593.201 424.276C594.197 425.272 595.109 426.029 595.938 426.549C596.756 427.058 597.594 427.289 598.45 427.241C599.307 427.193 600.164 426.741 601.02 425.885C601.877 425.028 602.329 424.171 602.377 423.315C602.424 422.458 602.194 421.621 601.685 420.802C601.165 419.973 600.408 419.061 599.412 418.066Z" fill="url(#paint15_linear_2696_18237)"/>
<path d="M602.967 414.51C601.184 412.726 600.114 411.027 599.76 409.411C599.405 407.795 600.043 406.172 601.673 404.542C603.303 402.912 604.926 402.274 606.542 402.629C608.157 402.984 609.857 404.053 611.641 405.837C613.456 407.651 614.546 409.372 614.911 410.998C615.276 412.624 614.643 414.253 613.013 415.883C611.372 417.524 609.737 418.163 608.111 417.798C606.497 417.421 604.782 416.325 602.967 414.51ZM610.41 407.068C609.445 406.104 608.554 405.367 607.735 404.858C606.917 404.349 606.079 404.118 605.223 404.166C604.366 404.213 603.51 404.665 602.653 405.522C601.796 406.379 601.344 407.235 601.296 408.092C601.249 408.949 601.479 409.786 601.989 410.604C602.498 411.423 603.234 412.314 604.199 413.279C605.194 414.274 606.107 415.032 606.935 415.551C607.754 416.06 608.591 416.291 609.448 416.243C610.305 416.196 611.161 415.744 612.018 414.887C612.874 414.03 613.327 413.174 613.374 412.317C613.422 411.46 613.191 410.623 612.682 409.805C612.163 408.976 611.405 408.064 610.41 407.068Z" fill="url(#paint16_linear_2696_18237)"/>
<path d="M613.76 394.726L612.78 393.746L615.814 390.712L626.968 401.866L625.701 403.133L615.527 392.959L613.76 394.726Z" fill="url(#paint17_linear_2696_18237)"/>
<path d="M624.074 393.404C622.29 391.62 621.221 389.92 620.866 388.305C620.511 386.689 621.149 385.066 622.779 383.436C624.409 381.806 626.032 381.168 627.648 381.523C629.264 381.877 630.964 382.947 632.747 384.73C634.562 386.545 635.652 388.266 636.017 389.892C636.382 391.518 635.75 393.146 634.12 394.776C632.478 396.418 630.844 397.057 629.217 396.692C627.603 396.315 625.889 395.219 624.074 393.404ZM631.516 385.962C630.551 384.997 629.66 384.261 628.841 383.751C628.023 383.242 627.186 383.012 626.329 383.059C625.472 383.107 624.616 383.559 623.759 384.416C622.902 385.272 622.45 386.129 622.403 386.986C622.355 387.842 622.586 388.68 623.095 389.498C623.604 390.317 624.341 391.208 625.305 392.173C626.301 393.168 627.213 393.926 628.042 394.445C628.86 394.954 629.698 395.185 630.554 395.137C631.411 395.09 632.267 394.637 633.124 393.781C633.981 392.924 634.433 392.067 634.481 391.211C634.528 390.354 634.297 389.517 633.788 388.698C633.269 387.87 632.511 386.957 631.516 385.962Z" fill="url(#paint18_linear_2696_18237)"/>
<path d="M635.071 382.406C633.287 380.623 632.218 378.923 631.864 377.307C631.509 375.691 632.147 374.068 633.777 372.438C635.407 370.808 637.03 370.171 638.645 370.525C640.261 370.88 641.961 371.949 643.745 373.733C645.56 375.548 646.65 377.268 647.015 378.894C647.38 380.521 646.747 382.149 645.117 383.779C643.475 385.421 641.841 386.059 640.215 385.694C638.601 385.317 636.886 384.221 635.071 382.406ZM642.513 374.964C641.549 374 640.657 373.263 639.839 372.754C639.021 372.245 638.183 372.014 637.327 372.062C636.47 372.109 635.613 372.562 634.757 373.418C633.9 374.275 633.448 375.132 633.4 375.988C633.353 376.845 633.583 377.682 634.092 378.501C634.601 379.319 635.338 380.211 636.303 381.175C637.298 382.171 638.21 382.928 639.039 383.448C639.858 383.957 640.695 384.187 641.552 384.14C642.408 384.092 643.265 383.64 644.122 382.783C644.978 381.927 645.43 381.07 645.478 380.213C645.526 379.357 645.295 378.519 644.786 377.701C644.267 376.872 643.509 375.96 642.513 374.964Z" fill="url(#paint19_linear_2696_18237)"/>
<path d="M645.864 362.622L644.884 361.642L647.918 358.608L659.071 369.762L657.804 371.029L647.63 360.856L645.864 362.622Z" fill="url(#paint20_linear_2696_18237)"/>
<path d="M656.177 361.3C654.394 359.516 653.324 357.817 652.97 356.201C652.615 354.585 653.253 352.962 654.883 351.332C656.513 349.702 658.136 349.064 659.752 349.419C661.367 349.774 663.067 350.843 664.851 352.627C666.666 354.441 667.756 356.162 668.121 357.788C668.486 359.414 667.853 361.043 666.223 362.673C664.581 364.315 662.947 364.953 661.321 364.588C659.707 364.211 657.992 363.115 656.177 361.3ZM663.62 353.858C662.655 352.894 661.764 352.157 660.945 351.648C660.127 351.139 659.289 350.908 658.433 350.956C657.576 351.003 656.72 351.455 655.863 352.312C655.006 353.169 654.554 354.025 654.506 354.882C654.459 355.739 654.689 356.576 655.199 357.394C655.708 358.213 656.444 359.104 657.409 360.069C658.404 361.064 659.317 361.822 660.145 362.341C660.964 362.85 661.801 363.081 662.658 363.033C663.515 362.986 664.371 362.534 665.228 361.677C666.084 360.82 666.537 359.964 666.584 359.107C666.632 358.251 666.401 357.413 665.892 356.595C665.373 355.766 664.615 354.854 663.62 353.858Z" fill="url(#paint21_linear_2696_18237)"/>
<path d="M667.175 350.303C665.391 348.519 664.322 346.819 663.967 345.203C663.613 343.587 664.25 341.965 665.88 340.334C667.51 338.704 669.133 338.067 670.749 338.421C672.365 338.776 674.065 339.845 675.849 341.629C677.664 343.444 678.753 345.165 679.118 346.791C679.483 348.417 678.851 350.045 677.221 351.675C675.579 353.317 673.945 353.955 672.319 353.59C670.704 353.214 668.99 352.118 667.175 350.303ZM674.617 342.86C673.653 341.896 672.761 341.159 671.943 340.65C671.124 340.141 670.287 339.91 669.43 339.958C668.574 340.006 667.717 340.458 666.86 341.315C666.004 342.171 665.552 343.028 665.504 343.884C665.456 344.741 665.687 345.578 666.196 346.397C666.705 347.215 667.442 348.107 668.406 349.071C669.402 350.067 670.314 350.824 671.143 351.344C671.961 351.853 672.799 352.084 673.655 352.036C674.512 351.988 675.369 351.536 676.225 350.679C677.082 349.823 677.534 348.966 677.582 348.11C677.629 347.253 677.399 346.415 676.89 345.597C676.37 344.768 675.613 343.856 674.617 342.86Z" fill="url(#paint22_linear_2696_18237)"/>
<path d="M677.967 330.519L676.987 329.539L680.021 326.505L691.175 337.659L689.908 338.926L679.734 328.752L677.967 330.519Z" fill="url(#paint23_linear_2696_18237)"/>
<path d="M688.281 329.197C686.497 327.413 685.428 325.713 685.074 324.097C684.719 322.481 685.357 320.858 686.987 319.228C688.617 317.598 690.24 316.961 691.855 317.315C693.471 317.67 695.171 318.739 696.955 320.523C698.77 322.338 699.86 324.058 700.225 325.685C700.59 327.311 699.957 328.939 698.327 330.569C696.685 332.211 695.051 332.849 693.425 332.484C691.811 332.107 690.096 331.011 688.281 329.197ZM695.723 321.754C694.759 320.79 693.867 320.053 693.049 319.544C692.231 319.035 691.393 318.804 690.537 318.852C689.68 318.899 688.823 319.352 687.967 320.208C687.11 321.065 686.658 321.922 686.61 322.778C686.563 323.635 686.793 324.472 687.302 325.291C687.811 326.109 688.548 327.001 689.513 327.965C690.508 328.961 691.42 329.718 692.249 330.238C693.068 330.747 693.905 330.977 694.762 330.93C695.618 330.882 696.475 330.43 697.332 329.573C698.188 328.717 698.64 327.86 698.688 327.003C698.736 326.147 698.505 325.309 697.996 324.491C697.476 323.662 696.719 322.75 695.723 321.754Z" fill="url(#paint24_linear_2696_18237)"/>
<path d="M699.279 318.199C697.495 316.415 696.426 314.715 696.071 313.1C695.716 311.484 696.354 309.861 697.984 308.231C699.614 306.601 701.237 305.963 702.853 306.318C704.469 306.672 706.169 307.741 707.952 309.525C709.767 311.34 710.857 313.061 711.222 314.687C711.587 316.313 710.955 317.941 709.325 319.571C707.683 321.213 706.049 321.852 704.423 321.487C702.808 321.11 701.094 320.014 699.279 318.199ZM706.721 310.757C705.756 309.792 704.865 309.055 704.047 308.546C703.228 308.037 702.391 307.807 701.534 307.854C700.677 307.902 699.821 308.354 698.964 309.211C698.108 310.067 697.655 310.924 697.608 311.781C697.56 312.637 697.791 313.475 698.3 314.293C698.809 315.112 699.546 316.003 700.51 316.968C701.506 317.963 702.418 318.721 703.247 319.24C704.065 319.749 704.903 319.98 705.759 319.932C706.616 319.885 707.472 319.432 708.329 318.576C709.186 317.719 709.638 316.862 709.686 316.006C709.733 315.149 709.503 314.312 708.993 313.493C708.474 312.665 707.717 311.752 706.721 310.757Z" fill="url(#paint25_linear_2696_18237)"/>
<path d="M710.071 298.415L709.091 297.435L712.125 294.401L723.279 305.555L722.012 306.822L711.838 296.648L710.071 298.415Z" fill="url(#paint26_linear_2696_18237)"/>
<path d="M720.385 297.093C718.601 295.309 717.532 293.609 717.177 291.993C716.823 290.377 717.46 288.755 719.09 287.125C720.72 285.494 722.343 284.857 723.959 285.211C725.575 285.566 727.275 286.635 729.059 288.419C730.873 290.234 731.963 291.955 732.328 293.581C732.693 295.207 732.061 296.835 730.431 298.465C728.789 300.107 727.155 300.745 725.529 300.38C723.914 300.004 722.2 298.908 720.385 297.093ZM727.827 289.651C726.863 288.686 725.971 287.949 725.153 287.44C724.334 286.931 723.497 286.7 722.64 286.748C721.784 286.796 720.927 287.248 720.07 288.105C719.214 288.961 718.762 289.818 718.714 290.674C718.666 291.531 718.897 292.369 719.406 293.187C719.915 294.005 720.652 294.897 721.616 295.861C722.612 296.857 723.524 297.614 724.353 298.134C725.171 298.643 726.009 298.874 726.865 298.826C727.722 298.778 728.579 298.326 729.435 297.469C730.292 296.613 730.744 295.756 730.792 294.9C730.839 294.043 730.609 293.206 730.1 292.387C729.58 291.558 728.823 290.646 727.827 289.651Z" fill="url(#paint27_linear_2696_18237)"/>
<path d="M731.382 286.095C729.599 284.311 728.529 282.612 728.175 280.996C727.82 279.38 728.458 277.757 730.088 276.127C731.718 274.497 733.341 273.859 734.957 274.214C736.572 274.569 738.272 275.638 740.056 277.422C741.871 279.236 742.961 280.957 743.326 282.583C743.691 284.209 743.058 285.838 741.428 287.468C739.787 289.109 738.152 289.748 736.526 289.383C734.912 289.006 733.197 287.91 731.382 286.095ZM738.825 278.653C737.86 277.688 736.969 276.952 736.15 276.443C735.332 275.934 734.494 275.703 733.638 275.751C732.781 275.798 731.925 276.25 731.068 277.107C730.211 277.964 729.759 278.82 729.711 279.677C729.664 280.533 729.894 281.371 730.404 282.189C730.913 283.008 731.649 283.899 732.614 284.864C733.609 285.859 734.522 286.617 735.35 287.136C736.169 287.645 737.006 287.876 737.863 287.828C738.72 287.781 739.576 287.329 740.433 286.472C741.29 285.615 741.742 284.759 741.789 283.902C741.837 283.045 741.606 282.208 741.097 281.39C740.578 280.561 739.82 279.649 738.825 278.653Z" fill="url(#paint28_linear_2696_18237)"/>
<path d="M742.175 266.311L741.195 265.331L744.229 262.297L755.383 273.451L754.116 274.718L743.942 264.544L742.175 266.311Z" fill="url(#paint29_linear_2696_18237)"/>
<path d="M752.489 264.989C750.705 263.205 749.636 261.505 749.281 259.89C748.926 258.274 749.564 256.651 751.194 255.021C752.824 253.391 754.447 252.753 756.063 253.108C757.679 253.462 759.379 254.532 761.162 256.315C762.977 258.13 764.067 259.851 764.432 261.477C764.797 263.103 764.165 264.731 762.535 266.361C760.893 268.003 759.259 268.642 757.632 268.277C756.018 267.9 754.304 266.804 752.489 264.989ZM759.931 257.547C758.966 256.582 758.075 255.846 757.257 255.336C756.438 254.827 755.601 254.597 754.744 254.644C753.887 254.692 753.031 255.144 752.174 256.001C751.317 256.857 750.865 257.714 750.818 258.571C750.77 259.427 751.001 260.265 751.51 261.083C752.019 261.902 752.756 262.793 753.72 263.758C754.716 264.753 755.628 265.511 756.457 266.03C757.275 266.539 758.113 266.77 758.969 266.722C759.826 266.675 760.682 266.222 761.539 265.366C762.396 264.509 762.848 263.652 762.896 262.796C762.943 261.939 762.712 261.102 762.203 260.283C761.684 259.455 760.926 258.542 759.931 257.547Z" fill="url(#paint30_linear_2696_18237)"/>
<path d="M763.486 253.991C761.702 252.208 760.633 250.508 760.279 248.892C759.924 247.276 760.562 245.653 762.192 244.023C763.822 242.393 765.445 241.755 767.06 242.11C768.676 242.465 770.376 243.534 772.16 245.318C773.975 247.133 775.065 248.853 775.43 250.479C775.795 252.106 775.162 253.734 773.532 255.364C771.89 257.006 770.256 257.644 768.63 257.279C767.016 256.902 765.301 255.806 763.486 253.991ZM770.928 246.549C769.964 245.585 769.072 244.848 768.254 244.339C767.436 243.83 766.598 243.599 765.742 243.647C764.885 243.694 764.028 244.147 763.172 245.003C762.315 245.86 761.863 246.717 761.815 247.573C761.768 248.43 761.998 249.267 762.507 250.086C763.016 250.904 763.753 251.796 764.718 252.76C765.713 253.756 766.625 254.513 767.454 255.033C768.273 255.542 769.11 255.772 769.967 255.725C770.823 255.677 771.68 255.225 772.537 254.368C773.393 253.512 773.845 252.655 773.893 251.798C773.941 250.942 773.71 250.104 773.201 249.286C772.682 248.457 771.924 247.545 770.928 246.549Z" fill="url(#paint31_linear_2696_18237)"/>
<path d="M774.279 234.207L773.299 233.227L776.333 230.193L787.486 241.347L786.219 242.614L776.046 232.441L774.279 234.207Z" fill="url(#paint32_linear_2696_18237)"/>
<path d="M784.592 232.885C782.809 231.101 781.739 229.402 781.385 227.786C781.03 226.17 781.668 224.547 783.298 222.917C784.928 221.287 786.551 220.649 788.167 221.004C789.782 221.359 791.482 222.428 793.266 224.212C795.081 226.026 796.171 227.747 796.536 229.373C796.901 230.999 796.268 232.628 794.638 234.258C792.996 235.9 791.362 236.538 789.736 236.173C788.122 235.796 786.407 234.7 784.592 232.885ZM792.035 225.443C791.07 224.479 790.179 223.742 789.36 223.233C788.542 222.724 787.704 222.493 786.848 222.541C785.991 222.588 785.135 223.04 784.278 223.897C783.421 224.754 782.969 225.61 782.921 226.467C782.874 227.323 783.104 228.161 783.614 228.979C784.123 229.798 784.859 230.689 785.824 231.654C786.819 232.649 787.732 233.407 788.56 233.926C789.379 234.435 790.216 234.666 791.073 234.618C791.93 234.571 792.786 234.119 793.643 233.262C794.499 232.405 794.952 231.549 794.999 230.692C795.047 229.835 794.816 228.998 794.307 228.18C793.788 227.351 793.03 226.439 792.035 225.443Z" fill="url(#paint33_linear_2696_18237)"/>
<path d="M795.59 221.888C793.806 220.104 792.737 218.404 792.382 216.788C792.028 215.172 792.665 213.549 794.295 211.919C795.925 210.289 797.548 209.652 799.164 210.006C800.78 210.361 802.48 211.43 804.264 213.214C806.079 215.029 807.168 216.749 807.533 218.376C807.898 220.002 807.266 221.63 805.636 223.26C803.994 224.902 802.36 225.54 800.734 225.175C799.119 224.799 797.405 223.703 795.59 221.888ZM803.032 214.445C802.068 213.481 801.176 212.744 800.358 212.235C799.539 211.726 798.702 211.495 797.845 211.543C796.989 211.591 796.132 212.043 795.275 212.9C794.419 213.756 793.967 214.613 793.919 215.469C793.871 216.326 794.102 217.163 794.611 217.982C795.12 218.8 795.857 219.692 796.821 220.656C797.817 221.652 798.729 222.409 799.558 222.929C800.376 223.438 801.214 223.669 802.07 223.621C802.927 223.573 803.784 223.121 804.64 222.264C805.497 221.408 805.949 220.551 805.997 219.695C806.045 218.838 805.814 218 805.305 217.182C804.785 216.353 804.028 215.441 803.032 214.445Z" fill="url(#paint34_linear_2696_18237)"/>
<path d="M806.382 202.104L805.402 201.124L808.436 198.09L819.59 209.244L818.323 210.511L808.149 200.337L806.382 202.104Z" fill="url(#paint35_linear_2696_18237)"/>
<path d="M816.696 200.781C814.912 198.998 813.843 197.298 813.489 195.682C813.134 194.066 813.772 192.443 815.402 190.813C817.032 189.183 818.655 188.546 820.27 188.9C821.886 189.255 823.586 190.324 825.37 192.108C827.185 193.923 828.275 195.643 828.64 197.269C829.005 198.896 828.372 200.524 826.742 202.154C825.1 203.796 823.466 204.434 821.84 204.069C820.226 203.692 818.511 202.596 816.696 200.781ZM824.138 193.339C823.174 192.375 822.282 191.638 821.464 191.129C820.646 190.62 819.808 190.389 818.952 190.437C818.095 190.484 817.238 190.937 816.382 191.793C815.525 192.65 815.073 193.507 815.025 194.363C814.978 195.22 815.208 196.057 815.717 196.876C816.226 197.694 816.963 198.586 817.928 199.55C818.923 200.546 819.835 201.303 820.664 201.823C821.483 202.332 822.32 202.562 823.177 202.515C824.033 202.467 824.89 202.015 825.747 201.158C826.603 200.302 827.055 199.445 827.103 198.588C827.151 197.732 826.92 196.894 826.411 196.076C825.892 195.247 825.134 194.335 824.138 193.339Z" fill="url(#paint36_linear_2696_18237)"/>
<path d="M827.694 189.784C825.91 188 824.841 186.3 824.486 184.684C824.131 183.069 824.769 181.446 826.399 179.816C828.029 178.186 829.652 177.548 831.268 177.903C832.884 178.257 834.584 179.326 836.367 181.11C838.182 182.925 839.272 184.646 839.637 186.272C840.002 187.898 839.37 189.526 837.74 191.156C836.098 192.798 834.464 193.437 832.838 193.072C831.223 192.695 829.509 191.599 827.694 189.784ZM835.136 182.342C834.171 181.377 833.28 180.64 832.462 180.131C831.643 179.622 830.806 179.392 829.949 179.439C829.092 179.487 828.236 179.939 827.379 180.796C826.523 181.652 826.07 182.509 826.023 183.366C825.975 184.222 826.206 185.06 826.715 185.878C827.224 186.697 827.961 187.588 828.925 188.552C829.921 189.548 830.833 190.306 831.662 190.825C832.48 191.334 833.318 191.565 834.174 191.517C835.031 191.469 835.887 191.017 836.744 190.161C837.601 189.304 838.053 188.447 838.101 187.591C838.148 186.734 837.918 185.897 837.408 185.078C836.889 184.25 836.132 183.337 835.136 182.342Z" fill="url(#paint37_linear_2696_18237)"/>
<path d="M838.486 170L837.506 169.02L840.54 165.986L851.694 177.14L850.427 178.407L840.253 168.233L838.486 170Z" fill="url(#paint38_linear_2696_18237)"/>
<path d="M848.8 168.678C847.016 166.894 845.947 165.194 845.592 163.578C845.238 161.962 845.875 160.34 847.505 158.709C849.135 157.079 850.758 156.442 852.374 156.796C853.99 157.151 855.69 158.22 857.474 160.004C859.288 161.819 860.378 163.54 860.743 165.166C861.108 166.792 860.476 168.42 858.846 170.05C857.204 171.692 855.57 172.33 853.944 171.965C852.329 171.589 850.615 170.493 848.8 168.678ZM856.242 161.236C855.278 160.271 854.386 159.534 853.568 159.025C852.749 158.516 851.912 158.285 851.055 158.333C850.199 158.381 849.342 158.833 848.485 159.69C847.629 160.546 847.177 161.403 847.129 162.259C847.081 163.116 847.312 163.953 847.821 164.772C848.33 165.59 849.067 166.482 850.031 167.446C851.027 168.442 851.939 169.199 852.768 169.719C853.586 170.228 854.424 170.459 855.28 170.411C856.137 170.363 856.994 169.911 857.85 169.054C858.707 168.198 859.159 167.341 859.207 166.485C859.254 165.628 859.024 164.791 858.515 163.972C857.995 163.143 857.238 162.231 856.242 161.236Z" fill="url(#paint39_linear_2696_18237)"/>
<path d="M859.797 157.68C858.014 155.896 856.944 154.197 856.59 152.581C856.235 150.965 856.873 149.342 858.503 147.712C860.133 146.082 861.756 145.444 863.372 145.799C864.988 146.154 866.687 147.223 868.471 149.007C870.286 150.821 871.376 152.542 871.741 154.168C872.106 155.794 871.474 157.422 869.843 159.053C868.202 160.694 866.567 161.333 864.941 160.968C863.327 160.591 861.612 159.495 859.797 157.68ZM867.24 150.238C866.275 149.273 865.384 148.537 864.565 148.028C863.747 147.519 862.909 147.288 862.053 147.336C861.196 147.383 860.34 147.835 859.483 148.692C858.626 149.549 858.174 150.405 858.126 151.262C858.079 152.118 858.31 152.956 858.819 153.774C859.328 154.593 860.064 155.484 861.029 156.449C862.025 157.444 862.937 158.202 863.766 158.721C864.584 159.23 865.421 159.461 866.278 159.413C867.135 159.366 867.991 158.914 868.848 158.057C869.705 157.2 870.157 156.344 870.204 155.487C870.252 154.63 870.021 153.793 869.512 152.975C868.993 152.146 868.235 151.234 867.24 150.238Z" fill="url(#paint40_linear_2696_18237)"/>
<path d="M870.59 137.896L869.61 136.916L872.644 133.882L883.798 145.036L882.531 146.303L872.357 136.129L870.59 137.896Z" fill="url(#paint41_linear_2696_18237)"/>
<path d="M880.904 136.574C879.12 134.79 878.051 133.09 877.696 131.475C877.341 129.859 877.979 128.236 879.609 126.606C881.239 124.976 882.862 124.338 884.478 124.693C886.094 125.047 887.794 126.117 889.577 127.9C891.392 129.715 892.482 131.436 892.847 133.062C893.212 134.688 892.58 136.316 890.95 137.946C889.308 139.588 887.674 140.227 886.048 139.862C884.433 139.485 882.719 138.389 880.904 136.574ZM888.346 129.132C887.381 128.167 886.49 127.43 885.672 126.921C884.853 126.412 884.016 126.182 883.159 126.229C882.302 126.277 881.446 126.729 880.589 127.586C879.733 128.442 879.28 129.299 879.233 130.156C879.185 131.012 879.416 131.85 879.925 132.668C880.434 133.487 881.171 134.378 882.135 135.343C883.131 136.338 884.043 137.096 884.872 137.615C885.69 138.124 886.528 138.355 887.384 138.307C888.241 138.26 889.097 137.807 889.954 136.951C890.811 136.094 891.263 135.237 891.311 134.381C891.358 133.524 891.128 132.687 890.618 131.868C890.099 131.04 889.342 130.127 888.346 129.132Z" fill="url(#paint42_linear_2696_18237)"/>
<path d="M891.901 125.576C890.117 123.793 889.048 122.093 888.694 120.477C888.339 118.861 888.977 117.238 890.607 115.608C892.237 113.978 893.86 113.34 895.475 113.695C897.091 114.05 898.791 115.119 900.575 116.903C902.39 118.718 903.48 120.438 903.845 122.064C904.21 123.691 903.577 125.319 901.947 126.949C900.305 128.591 898.671 129.229 897.045 128.864C895.431 128.487 893.716 127.391 891.901 125.576ZM899.343 118.134C898.379 117.17 897.487 116.433 896.669 115.924C895.851 115.415 895.013 115.184 894.157 115.232C893.3 115.279 892.443 115.732 891.587 116.588C890.73 117.445 890.278 118.302 890.23 119.158C890.183 120.015 890.413 120.852 890.922 121.671C891.431 122.489 892.168 123.38 893.133 124.345C894.128 125.341 895.04 126.098 895.869 126.618C896.688 127.127 897.525 127.357 898.382 127.31C899.238 127.262 900.095 126.81 900.952 125.953C901.808 125.097 902.26 124.24 902.308 123.383C902.356 122.527 902.125 121.689 901.616 120.871C901.097 120.042 900.339 119.13 899.343 118.134Z" fill="url(#paint43_linear_2696_18237)"/>
<path d="M902.694 105.792L901.714 104.812L904.748 101.778L915.902 112.932L914.634 114.199L904.46 104.026L902.694 105.792Z" fill="url(#paint44_linear_2696_18237)"/>
<path d="M913.007 104.47C911.224 102.686 910.154 100.987 909.8 99.3708C909.445 97.7549 910.083 96.132 911.713 94.502C913.343 92.8719 914.966 92.2343 916.582 92.5889C918.197 92.9435 919.897 94.0127 921.681 95.7965C923.496 97.6114 924.586 99.332 924.951 100.958C925.316 102.584 924.683 104.213 923.053 105.843C921.412 107.484 919.777 108.123 918.151 107.758C916.537 107.381 914.822 106.285 913.007 104.47ZM920.45 97.028C919.485 96.0635 918.594 95.3267 917.775 94.8177C916.957 94.3086 916.119 94.0779 915.263 94.1256C914.406 94.1732 913.55 94.6254 912.693 95.482C911.836 96.3387 911.384 97.1953 911.336 98.0519C911.289 98.9085 911.519 99.746 912.029 100.564C912.538 101.383 913.274 102.274 914.239 103.239C915.234 104.234 916.147 104.992 916.975 105.511C917.794 106.02 918.631 106.251 919.488 106.203C920.345 106.156 921.201 105.704 922.058 104.847C922.914 103.99 923.367 103.134 923.414 102.277C923.462 101.421 923.231 100.583 922.722 99.7646C922.203 98.9358 921.445 98.0236 920.45 97.028Z" fill="url(#paint45_linear_2696_18237)"/>
<path d="M924.005 93.4727C922.221 91.6889 921.152 89.9891 920.797 88.3732C920.443 86.7574 921.08 85.1345 922.71 83.5044C924.34 81.8744 925.963 81.2367 927.579 81.5914C929.195 81.946 930.895 83.0152 932.679 84.799C934.494 86.6139 935.583 88.3345 935.949 89.9607C936.314 91.5869 935.681 93.215 934.051 94.845C932.409 96.4869 930.775 97.1254 929.149 96.7604C927.535 96.3835 925.82 95.2876 924.005 93.4727ZM931.447 86.0304C930.483 85.066 929.591 84.3292 928.773 83.8201C927.954 83.3111 927.117 83.0804 926.26 83.128C925.404 83.1757 924.547 83.6278 923.69 84.4845C922.834 85.3411 922.382 86.1978 922.334 87.0543C922.286 87.9109 922.517 88.7484 923.026 89.5669C923.535 90.3853 924.272 91.2767 925.236 92.2412C926.232 93.2368 927.144 93.9943 927.973 94.5138C928.791 95.0228 929.629 95.2535 930.486 95.2059C931.342 95.1582 932.199 94.7061 933.055 93.8494C933.912 92.9928 934.364 92.1361 934.412 91.2796C934.46 90.423 934.229 89.5855 933.72 88.767C933.2 87.9383 932.443 87.0261 931.447 86.0304Z" fill="url(#paint46_linear_2696_18237)"/>
<path d="M934.797 73.6887L933.817 72.7086L936.851 69.6746L948.005 80.8285L946.738 82.0957L936.564 71.9218L934.797 73.6887Z" fill="url(#paint47_linear_2696_18237)"/>
<path d="M945.111 72.3665C943.327 70.5827 942.258 68.8828 941.904 67.267C941.549 65.6512 942.187 64.0283 943.817 62.3982C945.447 60.7682 947.07 60.1305 948.685 60.4851C950.301 60.8398 952.001 61.909 953.785 63.6928C955.6 65.5077 956.69 67.2283 957.055 68.8545C957.42 70.4807 956.787 72.1088 955.157 73.7388C953.515 75.3807 951.881 76.0192 950.255 75.6541C948.641 75.2772 946.926 74.1814 945.111 72.3665ZM952.553 64.9242C951.589 63.9597 950.697 63.223 949.879 62.7139C949.061 62.2048 948.223 61.9741 947.367 62.0218C946.51 62.0695 945.653 62.5216 944.797 63.3783C943.94 64.2349 943.488 65.0915 943.44 65.9481C943.393 66.8047 943.623 67.6422 944.132 68.4606C944.641 69.2791 945.378 70.1705 946.343 71.135C947.338 72.1306 948.25 72.8881 949.079 73.4076C949.898 73.9166 950.735 74.1473 951.592 74.0997C952.448 74.052 953.305 73.5999 954.162 72.7432C955.018 71.8865 955.47 71.0299 955.518 70.1733C955.566 69.3167 955.335 68.4792 954.826 67.6608C954.307 66.832 953.549 65.9198 952.553 64.9242Z" fill="url(#paint48_linear_2696_18237)"/>
<path d="M956.109 61.3689C954.325 59.5851 953.256 57.8853 952.901 56.2695C952.546 54.6536 953.184 53.0307 954.814 51.4007C956.444 49.7707 958.067 49.133 959.683 49.4876C961.299 49.8422 962.999 50.9114 964.782 52.6952C966.597 54.5102 967.687 56.2307 968.052 57.8569C968.417 59.4831 967.785 61.1112 966.155 62.7413C964.513 64.3832 962.879 65.0216 961.253 64.6566C959.638 64.2797 957.924 63.1838 956.109 61.3689ZM963.551 53.9267C962.586 52.9622 961.695 52.2254 960.877 51.7164C960.058 51.2073 959.221 50.9766 958.364 51.0243C957.507 51.0719 956.651 51.5241 955.794 52.3807C954.938 53.2374 954.485 54.094 954.438 54.9506C954.39 55.8072 954.621 56.6447 955.13 57.4631C955.639 58.2815 956.376 59.173 957.34 60.1375C958.336 61.1331 959.248 61.8906 960.077 62.41C960.895 62.9191 961.733 63.1498 962.589 63.1021C963.446 63.0545 964.302 62.6023 965.159 61.7457C966.016 60.889 966.468 60.0324 966.516 59.1758C966.563 58.3192 966.333 57.4817 965.824 56.6633C965.304 55.8345 964.547 54.9223 963.551 53.9267Z" fill="url(#paint49_linear_2696_18237)"/>
<path d="M966.901 41.5849L965.921 40.6049L968.955 37.5709L980.109 48.7248L978.842 49.9919L968.668 39.8181L966.901 41.5849Z" fill="url(#paint50_linear_2696_18237)"/>
<path d="M977.215 40.2627C975.431 38.4789 974.362 36.7791 974.007 35.1633C973.653 33.5474 974.29 31.9245 975.92 30.2945C977.55 28.6644 979.173 28.0267 980.789 28.3814C982.405 28.736 984.105 29.8052 985.889 31.589C987.704 33.4039 988.793 35.1245 989.158 36.7507C989.523 38.3769 988.891 40.005 987.261 41.635C985.619 43.277 983.985 43.9154 982.359 43.5504C980.744 43.1735 979.03 42.0776 977.215 40.2627ZM984.657 32.8205C983.693 31.856 982.801 31.1192 981.983 30.6102C981.164 30.1011 980.327 29.8704 979.47 29.9181C978.614 29.9657 977.757 30.4179 976.9 31.2745C976.044 32.1312 975.592 32.9878 975.544 33.8444C975.496 34.701 975.727 35.5385 976.236 36.3569C976.745 37.1753 977.482 38.0668 978.446 39.0313C979.442 40.0269 980.354 40.7844 981.183 41.3038C982.001 41.8129 982.839 42.0436 983.695 41.9959C984.552 41.9482 985.409 41.4961 986.265 40.6394C987.122 39.7828 987.574 38.9262 987.622 38.0696C987.669 37.213 987.439 36.3755 986.93 35.5571C986.41 34.7283 985.653 33.8161 984.657 32.8205Z" fill="url(#paint51_linear_2696_18237)"/>
<path d="M988.212 29.2652C986.429 27.4814 985.359 25.7815 985.005 24.1657C984.65 22.5499 985.288 20.927 986.918 19.2969C988.548 17.6669 990.171 17.0292 991.787 17.3838C993.403 17.7385 995.102 18.8077 996.886 20.5915C998.701 22.4064 999.791 24.127 1000.16 25.7532C1000.52 27.3794 999.889 29.0075 998.258 30.6375C996.617 32.2794 994.983 32.9179 993.356 32.5529C991.742 32.1759 990.027 31.0801 988.212 29.2652ZM995.655 21.8229C994.69 20.8584 993.799 20.1217 992.98 19.6126C992.162 19.1035 991.324 18.8729 990.468 18.9205C989.611 18.9682 988.755 19.4203 987.898 20.277C987.041 21.1336 986.589 21.9902 986.542 22.8468C986.494 23.7034 986.725 24.5409 987.234 25.3593C987.743 26.1778 988.479 27.0692 989.444 28.0337C990.44 29.0293 991.352 29.7868 992.181 30.3063C992.999 30.8153 993.836 31.046 994.693 30.9984C995.55 30.9507 996.406 30.4986 997.263 29.6419C998.12 28.7852 998.572 27.9286 998.619 27.072C998.667 26.2155 998.436 25.3779 997.927 24.5595C997.408 23.7307 996.65 22.8185 995.655 21.8229Z" fill="url(#paint52_linear_2696_18237)"/>
<path d="M999.005 9.48115L998.025 8.5011L1001.06 5.46711L1012.21 16.621L1010.95 17.8882L1000.77 7.71431L999.005 9.48115Z" fill="url(#paint53_linear_2696_18237)"/>
<path d="M1009.32 8.15895C1007.53 6.37515 1006.47 4.67533 1006.11 3.0595C1005.76 1.44367 1006.39 -0.179259 1008.02 -1.80929C1009.65 -3.43932 1011.28 -4.07701 1012.89 -3.72237C1014.51 -3.36773 1016.21 -2.29852 1017.99 -0.514727C1019.81 1.30018 1020.9 3.02075 1021.26 4.64695C1021.63 6.27315 1020.99 7.90126 1019.36 9.53129C1017.72 11.1732 1016.09 11.8116 1014.46 11.4466C1012.85 11.0697 1011.13 9.97385 1009.32 8.15895ZM1016.76 0.716723C1015.8 -0.247771 1014.9 -0.98454 1014.09 -1.4936C1013.27 -2.00267 1012.43 -2.23336 1011.57 -2.1857C1010.72 -2.13804 1009.86 -1.6859 1009 -0.829238C1008.15 0.0274197 1007.7 0.88403 1007.65 1.74062C1007.6 2.59721 1007.83 3.43472 1008.34 4.25313C1008.85 5.07154 1009.59 5.963 1010.55 6.9275C1011.55 7.9231 1012.46 8.68062 1013.29 9.20005C1014.11 9.70911 1014.94 9.93981 1015.8 9.89215C1016.66 9.84449 1017.51 9.39234 1018.37 8.53568C1019.23 7.67903 1019.68 6.82242 1019.73 5.96583C1019.77 5.10924 1019.54 4.27173 1019.03 3.45332C1018.51 2.62453 1017.76 1.71233 1016.76 0.716723Z" fill="url(#paint54_linear_2696_18237)"/>
<path d="M1020.32 -2.83859C1018.53 -4.62239 1017.46 -6.32221 1017.11 -7.93804C1016.75 -9.55388 1017.39 -11.1768 1019.02 -12.8068C1020.65 -14.4369 1022.27 -15.0745 1023.89 -14.7199C1025.51 -14.3653 1027.21 -13.2961 1028.99 -11.5123C1030.8 -9.69736 1031.89 -7.97679 1032.26 -6.35059C1032.62 -4.72439 1031.99 -3.09628 1030.36 -1.46625C1028.72 0.175678 1027.09 0.814108 1025.46 0.449097C1023.85 0.072188 1022.13 -1.02369 1020.32 -2.83859ZM1027.76 -10.2808C1026.79 -11.2453 1025.9 -11.9821 1025.08 -12.4911C1024.27 -13.0002 1023.43 -13.2309 1022.57 -13.1832C1021.71 -13.1356 1020.86 -12.6834 1020 -11.8268C1019.15 -10.9701 1018.69 -10.1135 1018.65 -9.25692C1018.6 -8.40033 1018.83 -7.56282 1019.34 -6.74441C1019.85 -5.926 1020.58 -5.03454 1021.55 -4.07004C1022.54 -3.07444 1023.46 -2.31693 1024.28 -1.79749C1025.1 -1.28843 1025.94 -1.05773 1026.8 -1.10539C1027.65 -1.15305 1028.51 -1.6052 1029.37 -2.46186C1030.22 -3.31851 1030.68 -4.17512 1030.72 -5.03171C1030.77 -5.8883 1030.54 -6.72581 1030.03 -7.54422C1029.51 -8.37301 1028.75 -9.28521 1027.76 -10.2808Z" fill="url(#paint55_linear_2696_18237)"/>
<path d="M1031.11 -22.6226L1030.13 -23.6027L1033.16 -26.6366L1044.32 -15.4827L1043.05 -14.2156L1032.88 -24.3894L1031.11 -22.6226Z" fill="url(#paint56_linear_2696_18237)"/>
<path d="M1041.42 -23.9448C1039.64 -25.7286 1038.57 -27.4284 1038.21 -29.0443C1037.86 -30.6601 1038.5 -32.283 1040.13 -33.913C1041.76 -35.5431 1043.38 -36.1808 1045 -35.8261C1046.61 -35.4715 1048.31 -34.4023 1050.1 -32.6185C1051.91 -30.8036 1053 -29.083 1053.37 -27.4568C1053.73 -25.8306 1053.1 -24.2025 1051.47 -22.5725C1049.83 -20.9305 1048.19 -20.2921 1046.57 -20.6571C1044.95 -21.034 1043.24 -22.1299 1041.42 -23.9448ZM1048.86 -31.387C1047.9 -32.3515 1047.01 -33.0883 1046.19 -33.5974C1045.37 -34.1064 1044.53 -34.3371 1043.68 -34.2895C1042.82 -34.2418 1041.96 -33.7897 1041.11 -32.933C1040.25 -32.0763 1039.8 -31.2197 1039.75 -30.3631C1039.7 -29.5065 1039.93 -28.669 1040.44 -27.8506C1040.95 -27.0322 1041.69 -26.1408 1042.65 -25.1763C1043.65 -24.1807 1044.56 -23.4231 1045.39 -22.9037C1046.21 -22.3946 1047.05 -22.1639 1047.9 -22.2116C1048.76 -22.2593 1049.62 -22.7114 1050.47 -23.5681C1051.33 -24.4247 1051.78 -25.2813 1051.83 -26.1379C1051.88 -26.9945 1051.65 -27.832 1051.14 -28.6504C1050.62 -29.4792 1049.86 -30.3914 1048.86 -31.387Z" fill="url(#paint57_linear_2696_18237)"/>
<path d="M1052.42 -34.9423C1050.64 -36.7261 1049.57 -38.426 1049.21 -40.0418C1048.86 -41.6576 1049.5 -43.2806 1051.13 -44.9106C1052.76 -46.5406 1054.38 -47.1783 1055.99 -46.8237C1057.61 -46.469 1059.31 -45.3998 1061.09 -43.616C1062.91 -41.8011 1064 -40.0805 1064.36 -38.4543C1064.73 -36.8281 1064.1 -35.2 1062.47 -33.57C1060.82 -31.9281 1059.19 -31.2896 1057.56 -31.6547C1055.95 -32.0316 1054.23 -33.1274 1052.42 -34.9423ZM1059.86 -42.3846C1058.9 -43.3491 1058.01 -44.0858 1057.19 -44.5949C1056.37 -45.104 1055.53 -45.3347 1054.68 -45.287C1053.82 -45.2393 1052.96 -44.7872 1052.11 -43.9305C1051.25 -43.0739 1050.8 -42.2173 1050.75 -41.3607C1050.7 -40.5041 1050.93 -39.6666 1051.44 -38.8482C1051.95 -38.0298 1052.69 -37.1383 1053.65 -36.1738C1054.65 -35.1782 1055.56 -34.4207 1056.39 -33.9012C1057.21 -33.3922 1058.04 -33.1615 1058.9 -33.2091C1059.76 -33.2568 1060.61 -33.709 1061.47 -34.5656C1062.33 -35.4223 1062.78 -36.2789 1062.83 -37.1355C1062.87 -37.9921 1062.64 -38.8296 1062.13 -39.648C1061.62 -40.4768 1060.86 -41.389 1059.86 -42.3846Z" fill="url(#paint58_linear_2696_18237)"/>
<path d="M1063.21 -54.7264L1062.23 -55.7064L1065.27 -58.7404L1076.42 -47.5865L1075.15 -46.3194L1064.98 -56.4932L1063.21 -54.7264Z" fill="url(#paint59_linear_2696_18237)"/>
<path d="M1073.53 -56.0486C1071.74 -57.8324 1070.67 -59.5322 1070.32 -61.148C1069.96 -62.7638 1070.6 -64.3868 1072.23 -66.0168C1073.86 -67.6468 1075.48 -68.2845 1077.1 -67.9299C1078.72 -67.5752 1080.42 -66.506 1082.2 -64.7222C1084.01 -62.9073 1085.1 -61.1868 1085.47 -59.5606C1085.83 -57.9344 1085.2 -56.3062 1083.57 -54.6762C1081.93 -53.0343 1080.3 -52.3959 1078.67 -52.7609C1077.06 -53.1378 1075.34 -54.2337 1073.53 -56.0486ZM1080.97 -63.4908C1080 -64.4553 1079.11 -65.1921 1078.29 -65.7011C1077.48 -66.2102 1076.64 -66.4409 1075.78 -66.3932C1074.92 -66.3456 1074.07 -65.8934 1073.21 -65.0367C1072.36 -64.1801 1071.9 -63.3235 1071.86 -62.4669C1071.81 -61.6103 1072.04 -60.7728 1072.55 -59.9544C1073.06 -59.136 1073.79 -58.2445 1074.76 -57.28C1075.75 -56.2844 1076.67 -55.5269 1077.49 -55.0075C1078.31 -54.4984 1079.15 -54.2677 1080.01 -54.3154C1080.86 -54.363 1081.72 -54.8152 1082.58 -55.6718C1083.43 -56.5285 1083.89 -57.3851 1083.93 -58.2417C1083.98 -59.0983 1083.75 -59.9358 1083.24 -60.7542C1082.72 -61.583 1081.96 -62.4952 1080.97 -63.4908Z" fill="url(#paint60_linear_2696_18237)"/>
<path d="M1084.52 -67.0461C1082.74 -68.8299 1081.67 -70.5297 1081.32 -72.1456C1080.96 -73.7614 1081.6 -75.3843 1083.23 -77.0143C1084.86 -78.6444 1086.48 -79.2821 1088.1 -78.9274C1089.71 -78.5728 1091.41 -77.5036 1093.2 -75.7198C1095.01 -73.9049 1096.1 -72.1843 1096.47 -70.5581C1096.83 -68.9319 1096.2 -67.3038 1094.57 -65.6738C1092.93 -64.0318 1091.29 -63.3934 1089.67 -63.7584C1088.05 -64.1353 1086.34 -65.2312 1084.52 -67.0461ZM1091.97 -74.4883C1091 -75.4528 1090.11 -76.1896 1089.29 -76.6987C1088.47 -77.2077 1087.64 -77.4384 1086.78 -77.3908C1085.92 -77.3431 1085.07 -76.8909 1084.21 -76.0343C1083.35 -75.1776 1082.9 -74.321 1082.85 -73.4644C1082.81 -72.6078 1083.04 -71.7703 1083.54 -70.9519C1084.05 -70.1335 1084.79 -69.242 1085.76 -68.2776C1086.75 -67.2819 1087.66 -66.5244 1088.49 -66.005C1089.31 -65.4959 1090.15 -65.2652 1091 -65.3129C1091.86 -65.3606 1092.72 -65.8127 1093.57 -66.6694C1094.43 -67.526 1094.88 -68.3826 1094.93 -69.2392C1094.98 -70.0958 1094.75 -70.9333 1094.24 -71.7517C1093.72 -72.5805 1092.96 -73.4927 1091.97 -74.4883Z" fill="url(#paint61_linear_2696_18237)"/>
    
</g>
</g>
<defs>
<linearGradient id="paint0_linear_2696_18237" x1="714.336" y1="326.665" x2="972.85" y2="33.305" gradientUnits="userSpaceOnUse">
<stop stop-color="#714EF5"/>
<stop offset="1" stop-color="#714EF5" stop-opacity="0"/>
</linearGradient>
<linearGradient id="paint1_linear_2696_18237" x1="884.118" y1="-2.09091" x2="757.405" y2="155.415" gradientUnits="userSpaceOnUse">
<stop stop-color="#79F5BA"/>
<stop offset="1" stop-color="#79F5BA" stop-opacity="0"/>
</linearGradient>
<linearGradient id="paint2_linear_2696_18237" x1="580.287" y1="442.715" x2="1102.15" y2="-42.967" gradientUnits="userSpaceOnUse">
<stop stop-color="#714EF5"/>
<stop offset="0.805404" stop-color="#B5A2FB"/>
</linearGradient>
<linearGradient id="paint3_linear_2696_18237" x1="580.287" y1="442.715" x2="1102.15" y2="-42.967" gradientUnits="userSpaceOnUse">
<stop stop-color="#714EF5"/>
<stop offset="0.805404" stop-color="#B5A2FB"/>
</linearGradient>
<linearGradient id="paint4_linear_2696_18237" x1="580.287" y1="442.715" x2="1102.15" y2="-42.967" gradientUnits="userSpaceOnUse">
<stop stop-color="#714EF5"/>
<stop offset="0.805404" stop-color="#B5A2FB"/>
</linearGradient>
<linearGradient id="paint5_linear_2696_18237" x1="580.287" y1="442.715" x2="1102.15" y2="-42.967" gradientUnits="userSpaceOnUse">
<stop stop-color="#714EF5"/>
<stop offset="0.805404" stop-color="#B5A2FB"/>
</linearGradient>
<linearGradient id="paint6_linear_2696_18237" x1="580.287" y1="442.715" x2="1102.15" y2="-42.967" gradientUnits="userSpaceOnUse">
<stop stop-color="#714EF5"/>
<stop offset="0.805404" stop-color="#B5A2FB"/>
</linearGradient>
<linearGradient id="paint7_linear_2696_18237" x1="580.287" y1="442.715" x2="1102.15" y2="-42.967" gradientUnits="userSpaceOnUse">
<stop stop-color="#714EF5"/>
<stop offset="0.805404" stop-color="#B5A2FB"/>
</linearGradient>
<linearGradient id="paint8_linear_2696_18237" x1="580.287" y1="442.715" x2="1102.15" y2="-42.967" gradientUnits="userSpaceOnUse">
<stop stop-color="#714EF5"/>
<stop offset="0.805404" stop-color="#B5A2FB"/>
</linearGradient>
<linearGradient id="paint9_linear_2696_18237" x1="580.287" y1="442.715" x2="1102.15" y2="-42.967" gradientUnits="userSpaceOnUse">
<stop stop-color="#714EF5"/>
<stop offset="0.805404" stop-color="#B5A2FB"/>
</linearGradient>
<linearGradient id="paint10_linear_2696_18237" x1="580.287" y1="442.715" x2="1102.15" y2="-42.967" gradientUnits="userSpaceOnUse">
<stop stop-color="#714EF5"/>
<stop offset="0.805404" stop-color="#B5A2FB"/>
</linearGradient>
<linearGradient id="paint11_linear_2696_18237" x1="580.287" y1="442.715" x2="1102.15" y2="-42.967" gradientUnits="userSpaceOnUse">
<stop stop-color="#714EF5"/>
<stop offset="0.805404" stop-color="#B5A2FB"/>
</linearGradient>
<linearGradient id="paint12_linear_2696_18237" x1="580.287" y1="442.715" x2="1102.15" y2="-42.967" gradientUnits="userSpaceOnUse">
<stop stop-color="#714EF5"/>
<stop offset="0.805404" stop-color="#B5A2FB"/>
</linearGradient>
<linearGradient id="paint13_linear_2696_18237" x1="580.287" y1="442.715" x2="1102.15" y2="-42.967" gradientUnits="userSpaceOnUse">
<stop stop-color="#714EF5"/>
<stop offset="0.805404" stop-color="#B5A2FB"/>
</linearGradient>
<linearGradient id="paint14_linear_2696_18237" x1="580.287" y1="442.715" x2="1102.15" y2="-42.967" gradientUnits="userSpaceOnUse">
<stop stop-color="#714EF5"/>
<stop offset="0.805404" stop-color="#B5A2FB"/>
</linearGradient>
<linearGradient id="paint15_linear_2696_18237" x1="580.287" y1="442.715" x2="1102.15" y2="-42.967" gradientUnits="userSpaceOnUse">
<stop stop-color="#714EF5"/>
<stop offset="0.805404" stop-color="#B5A2FB"/>
</linearGradient>
<linearGradient id="paint16_linear_2696_18237" x1="580.287" y1="442.715" x2="1102.15" y2="-42.967" gradientUnits="userSpaceOnUse">
<stop stop-color="#714EF5"/>
<stop offset="0.805404" stop-color="#B5A2FB"/>
</linearGradient>
<linearGradient id="paint17_linear_2696_18237" x1="580.287" y1="442.715" x2="1102.15" y2="-42.967" gradientUnits="userSpaceOnUse">
<stop stop-color="#714EF5"/>
<stop offset="0.805404" stop-color="#B5A2FB"/>
</linearGradient>
<linearGradient id="paint18_linear_2696_18237" x1="580.287" y1="442.715" x2="1102.15" y2="-42.967" gradientUnits="userSpaceOnUse">
<stop stop-color="#714EF5"/>
<stop offset="0.805404" stop-color="#B5A2FB"/>
</linearGradient>
<linearGradient id="paint19_linear_2696_18237" x1="580.287" y1="442.715" x2="1102.15" y2="-42.967" gradientUnits="userSpaceOnUse">
<stop stop-color="#714EF5"/>
<stop offset="0.805404" stop-color="#B5A2FB"/>
</linearGradient>
<linearGradient id="paint20_linear_2696_18237" x1="580.287" y1="442.715" x2="1102.15" y2="-42.967" gradientUnits="userSpaceOnUse">
<stop stop-color="#714EF5"/>
<stop offset="0.805404" stop-color="#B5A2FB"/>
</linearGradient>
<linearGradient id="paint21_linear_2696_18237" x1="580.287" y1="442.715" x2="1102.15" y2="-42.967" gradientUnits="userSpaceOnUse">
<stop stop-color="#714EF5"/>
<stop offset="0.805404" stop-color="#B5A2FB"/>
</linearGradient>
<linearGradient id="paint22_linear_2696_18237" x1="580.287" y1="442.715" x2="1102.15" y2="-42.967" gradientUnits="userSpaceOnUse">
<stop stop-color="#714EF5"/>
<stop offset="0.805404" stop-color="#B5A2FB"/>
</linearGradient>
<linearGradient id="paint23_linear_2696_18237" x1="580.287" y1="442.715" x2="1102.15" y2="-42.967" gradientUnits="userSpaceOnUse">
<stop stop-color="#714EF5"/>
<stop offset="0.805404" stop-color="#B5A2FB"/>
</linearGradient>
<linearGradient id="paint24_linear_2696_18237" x1="580.287" y1="442.715" x2="1102.15" y2="-42.967" gradientUnits="userSpaceOnUse">
<stop stop-color="#714EF5"/>
<stop offset="0.805404" stop-color="#B5A2FB"/>
</linearGradient>
<linearGradient id="paint25_linear_2696_18237" x1="580.287" y1="442.715" x2="1102.15" y2="-42.967" gradientUnits="userSpaceOnUse">
<stop stop-color="#714EF5"/>
<stop offset="0.805404" stop-color="#B5A2FB"/>
</linearGradient>
<linearGradient id="paint26_linear_2696_18237" x1="580.287" y1="442.715" x2="1102.15" y2="-42.967" gradientUnits="userSpaceOnUse">
<stop stop-color="#714EF5"/>
<stop offset="0.805404" stop-color="#B5A2FB"/>
</linearGradient>
<linearGradient id="paint27_linear_2696_18237" x1="580.287" y1="442.715" x2="1102.15" y2="-42.967" gradientUnits="userSpaceOnUse">
<stop stop-color="#714EF5"/>
<stop offset="0.805404" stop-color="#B5A2FB"/>
</linearGradient>
<linearGradient id="paint28_linear_2696_18237" x1="580.287" y1="442.715" x2="1102.15" y2="-42.967" gradientUnits="userSpaceOnUse">
<stop stop-color="#714EF5"/>
<stop offset="0.805404" stop-color="#B5A2FB"/>
</linearGradient>
<linearGradient id="paint29_linear_2696_18237" x1="580.287" y1="442.715" x2="1102.15" y2="-42.967" gradientUnits="userSpaceOnUse">
<stop stop-color="#714EF5"/>
<stop offset="0.805404" stop-color="#B5A2FB"/>
</linearGradient>
<linearGradient id="paint30_linear_2696_18237" x1="580.287" y1="442.715" x2="1102.15" y2="-42.967" gradientUnits="userSpaceOnUse">
<stop stop-color="#714EF5"/>
<stop offset="0.805404" stop-color="#B5A2FB"/>
</linearGradient>
<linearGradient id="paint31_linear_2696_18237" x1="580.287" y1="442.715" x2="1102.15" y2="-42.967" gradientUnits="userSpaceOnUse">
<stop stop-color="#714EF5"/>
<stop offset="0.805404" stop-color="#B5A2FB"/>
</linearGradient>
<linearGradient id="paint32_linear_2696_18237" x1="580.287" y1="442.715" x2="1102.15" y2="-42.967" gradientUnits="userSpaceOnUse">
<stop stop-color="#714EF5"/>
<stop offset="0.805404" stop-color="#B5A2FB"/>
</linearGradient>
<linearGradient id="paint33_linear_2696_18237" x1="580.287" y1="442.715" x2="1102.15" y2="-42.967" gradientUnits="userSpaceOnUse">
<stop stop-color="#714EF5"/>
<stop offset="0.805404" stop-color="#B5A2FB"/>
</linearGradient>
<linearGradient id="paint34_linear_2696_18237" x1="580.287" y1="442.715" x2="1102.15" y2="-42.967" gradientUnits="userSpaceOnUse">
<stop stop-color="#714EF5"/>
<stop offset="0.805404" stop-color="#B5A2FB"/>
</linearGradient>
<linearGradient id="paint35_linear_2696_18237" x1="580.287" y1="442.715" x2="1102.15" y2="-42.967" gradientUnits="userSpaceOnUse">
<stop stop-color="#714EF5"/>
<stop offset="0.805404" stop-color="#B5A2FB"/>
</linearGradient>
<linearGradient id="paint36_linear_2696_18237" x1="580.287" y1="442.715" x2="1102.15" y2="-42.967" gradientUnits="userSpaceOnUse">
<stop stop-color="#714EF5"/>
<stop offset="0.805404" stop-color="#B5A2FB"/>
</linearGradient>
<linearGradient id="paint37_linear_2696_18237" x1="580.287" y1="442.715" x2="1102.15" y2="-42.967" gradientUnits="userSpaceOnUse">
<stop stop-color="#714EF5"/>
<stop offset="0.805404" stop-color="#B5A2FB"/>
</linearGradient>
<linearGradient id="paint38_linear_2696_18237" x1="580.287" y1="442.715" x2="1102.15" y2="-42.967" gradientUnits="userSpaceOnUse">
<stop stop-color="#714EF5"/>
<stop offset="0.805404" stop-color="#B5A2FB"/>
</linearGradient>
<linearGradient id="paint39_linear_2696_18237" x1="580.287" y1="442.715" x2="1102.15" y2="-42.967" gradientUnits="userSpaceOnUse">
<stop stop-color="#714EF5"/>
<stop offset="0.805404" stop-color="#B5A2FB"/>
</linearGradient>
<linearGradient id="paint40_linear_2696_18237" x1="580.287" y1="442.715" x2="1102.15" y2="-42.967" gradientUnits="userSpaceOnUse">
<stop stop-color="#714EF5"/>
<stop offset="0.805404" stop-color="#B5A2FB"/>
</linearGradient>
<linearGradient id="paint41_linear_2696_18237" x1="580.287" y1="442.715" x2="1102.15" y2="-42.967" gradientUnits="userSpaceOnUse">
<stop stop-color="#714EF5"/>
<stop offset="0.805404" stop-color="#B5A2FB"/>
</linearGradient>
<linearGradient id="paint42_linear_2696_18237" x1="580.287" y1="442.715" x2="1102.15" y2="-42.967" gradientUnits="userSpaceOnUse">
<stop stop-color="#714EF5"/>
<stop offset="0.805404" stop-color="#B5A2FB"/>
</linearGradient>
<linearGradient id="paint43_linear_2696_18237" x1="580.287" y1="442.715" x2="1102.15" y2="-42.967" gradientUnits="userSpaceOnUse">
<stop stop-color="#714EF5"/>
<stop offset="0.805404" stop-color="#B5A2FB"/>
</linearGradient>
<linearGradient id="paint44_linear_2696_18237" x1="580.287" y1="442.715" x2="1102.15" y2="-42.967" gradientUnits="userSpaceOnUse">
<stop stop-color="#714EF5"/>
<stop offset="0.805404" stop-color="#B5A2FB"/>
</linearGradient>
<linearGradient id="paint45_linear_2696_18237" x1="580.287" y1="442.715" x2="1102.15" y2="-42.967" gradientUnits="userSpaceOnUse">
<stop stop-color="#714EF5"/>
<stop offset="0.805404" stop-color="#B5A2FB"/>
</linearGradient>
<linearGradient id="paint46_linear_2696_18237" x1="580.287" y1="442.715" x2="1102.15" y2="-42.967" gradientUnits="userSpaceOnUse">
<stop stop-color="#714EF5"/>
<stop offset="0.805404" stop-color="#B5A2FB"/>
</linearGradient>
<linearGradient id="paint47_linear_2696_18237" x1="580.287" y1="442.715" x2="1102.15" y2="-42.967" gradientUnits="userSpaceOnUse">
<stop stop-color="#714EF5"/>
<stop offset="0.805404" stop-color="#B5A2FB"/>
</linearGradient>
<linearGradient id="paint48_linear_2696_18237" x1="580.287" y1="442.715" x2="1102.15" y2="-42.967" gradientUnits="userSpaceOnUse">
<stop stop-color="#714EF5"/>
<stop offset="0.805404" stop-color="#B5A2FB"/>
</linearGradient>
<linearGradient id="paint49_linear_2696_18237" x1="580.287" y1="442.715" x2="1102.15" y2="-42.967" gradientUnits="userSpaceOnUse">
<stop stop-color="#714EF5"/>
<stop offset="0.805404" stop-color="#B5A2FB"/>
</linearGradient>
<linearGradient id="paint50_linear_2696_18237" x1="580.287" y1="442.715" x2="1102.15" y2="-42.967" gradientUnits="userSpaceOnUse">
<stop stop-color="#714EF5"/>
<stop offset="0.805404" stop-color="#B5A2FB"/>
</linearGradient>
<linearGradient id="paint51_linear_2696_18237" x1="580.287" y1="442.715" x2="1102.15" y2="-42.967" gradientUnits="userSpaceOnUse">
<stop stop-color="#714EF5"/>
<stop offset="0.805404" stop-color="#B5A2FB"/>
</linearGradient>
<linearGradient id="paint52_linear_2696_18237" x1="580.287" y1="442.715" x2="1102.15" y2="-42.967" gradientUnits="userSpaceOnUse">
<stop stop-color="#714EF5"/>
<stop offset="0.805404" stop-color="#B5A2FB"/>
</linearGradient>
<linearGradient id="paint53_linear_2696_18237" x1="580.287" y1="442.715" x2="1102.15" y2="-42.967" gradientUnits="userSpaceOnUse">
<stop stop-color="#714EF5"/>
<stop offset="0.805404" stop-color="#B5A2FB"/>
</linearGradient>
<linearGradient id="paint54_linear_2696_18237" x1="580.287" y1="442.715" x2="1102.15" y2="-42.967" gradientUnits="userSpaceOnUse">
<stop stop-color="#714EF5"/>
<stop offset="0.805404" stop-color="#B5A2FB"/>
</linearGradient>
<linearGradient id="paint55_linear_2696_18237" x1="580.287" y1="442.715" x2="1102.15" y2="-42.967" gradientUnits="userSpaceOnUse">
<stop stop-color="#714EF5"/>
<stop offset="0.805404" stop-color="#B5A2FB"/>
</linearGradient>
<linearGradient id="paint56_linear_2696_18237" x1="580.287" y1="442.715" x2="1102.15" y2="-42.967" gradientUnits="userSpaceOnUse">
<stop stop-color="#714EF5"/>
<stop offset="0.805404" stop-color="#B5A2FB"/>
</linearGradient>
<linearGradient id="paint57_linear_2696_18237" x1="580.287" y1="442.715" x2="1102.15" y2="-42.967" gradientUnits="userSpaceOnUse">
<stop stop-color="#714EF5"/>
<stop offset="0.805404" stop-color="#B5A2FB"/>
</linearGradient>
<linearGradient id="paint58_linear_2696_18237" x1="580.287" y1="442.715" x2="1102.15" y2="-42.967" gradientUnits="userSpaceOnUse">
<stop stop-color="#714EF5"/>
<stop offset="0.805404" stop-color="#B5A2FB"/>
</linearGradient>
<linearGradient id="paint59_linear_2696_18237" x1="580.287" y1="442.715" x2="1102.15" y2="-42.967" gradientUnits="userSpaceOnUse">
<stop stop-color="#714EF5"/>
<stop offset="0.805404" stop-color="#B5A2FB"/>
</linearGradient>
<linearGradient id="paint60_linear_2696_18237" x1="580.287" y1="442.715" x2="1102.15" y2="-42.967" gradientUnits="userSpaceOnUse">
<stop stop-color="#714EF5"/>
<stop offset="0.805404" stop-color="#B5A2FB"/>
</linearGradient>
<linearGradient id="paint61_linear_2696_18237" x1="580.287" y1="442.715" x2="1102.15" y2="-42.967" gradientUnits="userSpaceOnUse">
<stop stop-color="#714EF5"/>
<stop offset="0.805404" stop-color="#B5A2FB"/>
</linearGradient>
</defs>
</svg>
