<svg xmlns="http://www.w3.org/2000/svg" width="2087" height="332" viewBox="0 0 2087 332" fill="none" class="cta-content-line is-line-1 clickable-off">
<mask id="mask0_2696_18228" style="mask-type:alpha" maskUnits="userSpaceOnUse" x="0" y="0" width="2087" height="332">
<rect width="2087" height="332" rx="21" fill="#1C1C1B"/>
</mask>
<g xmlns="http://www.w3.org/2000/svg" mask="url(#mask0_2696_18228)">
<mask id="path-2-inside-1_2696_18228" fill="white">
<path d="M865.23 -105.594L317.576 442.06L287.171 411.655L834.825 -135.999L865.23 -105.594Z"/>
</mask>
<path d="M865.23 -105.594L317.576 442.06L287.171 411.655L834.825 -135.999L865.23 -105.594Z" fill="#714EF5" fill-opacity="0.33"/>
<path d="M866.645 -104.18L318.99 443.475L316.162 440.646L863.816 -107.008L866.645 -104.18ZM285.756 410.241L833.411 -137.414L836.239 -134.585L288.585 413.069L285.756 410.241ZM834.825 -135.999L865.23 -105.594L834.825 -135.999ZM317.576 442.06L287.171 411.655L317.576 442.06Z" fill="url(#paint0_linear_2696_18228)" mask="url(#path-2-inside-1_2696_18228)"/>
<mask id="path-4-inside-2_2696_18228" fill="white">
<path d="M1257.51 -474.496L-60.3251 843.342L-123.348 780.32L1194.49 -537.519L1257.51 -474.496Z"/>
</mask>
<path d="M1258.93 -473.082L-58.9109 844.757L-61.7393 841.928L1256.1 -475.91L1258.93 -473.082ZM-124.762 778.906L1193.08 -538.933L1195.91 -536.104L-121.933 781.734L-124.762 778.906ZM1194.49 -537.519L1257.51 -474.496L1194.49 -537.519ZM-60.3251 843.342L-123.348 780.32L-60.3251 843.342Z" fill="url(#paint1_linear_2696_18228)" mask="url(#path-4-inside-2_2696_18228)"/>
<g id="line1text">
<path d="M283.327 436.155L282.347 435.175L284.992 432.531L296.145 443.684L295.041 444.789L284.867 434.615L283.327 436.155Z" fill="url(#paint2_linear_2696_18228)"/>
<path d="M292.894 435.58C291.11 433.796 290.001 432.137 289.565 430.602C289.129 429.067 289.622 427.589 291.043 426.168C292.464 424.747 293.942 424.255 295.476 424.69C297.011 425.126 298.671 426.236 300.454 428.019C302.269 429.834 303.4 431.514 303.846 433.06C304.292 434.605 303.804 436.088 302.383 437.509C300.952 438.94 299.464 439.432 297.919 438.987C296.384 438.53 294.709 437.395 292.894 435.58ZM299.381 429.093C298.417 428.128 297.535 427.381 296.736 426.853C295.938 426.324 295.139 426.054 294.341 426.044C293.542 426.033 292.77 426.401 292.023 427.148C291.276 427.895 290.908 428.667 290.918 429.466C290.929 430.265 291.198 431.063 291.727 431.862C292.256 432.66 293.003 433.542 293.967 434.506C294.963 435.502 295.865 436.269 296.674 436.809C297.473 437.338 298.271 437.607 299.07 437.618C299.868 437.628 300.641 437.26 301.388 436.513C302.135 435.766 302.503 434.994 302.492 434.195C302.482 433.397 302.212 432.598 301.683 431.799C301.144 430.991 300.377 430.088 299.381 429.093Z" fill="url(#paint3_linear_2696_18228)"/>
<path d="M302.48 425.994C300.696 424.21 299.587 422.551 299.151 421.016C298.715 419.481 299.208 418.003 300.629 416.582C302.05 415.161 303.528 414.669 305.062 415.104C306.597 415.54 308.257 416.65 310.04 418.433C311.855 420.248 312.986 421.928 313.432 423.474C313.878 425.019 313.39 426.502 311.969 427.923C310.538 429.354 309.05 429.846 307.505 429.401C305.97 428.944 304.295 427.809 302.48 425.994ZM308.967 419.507C308.003 418.542 307.121 417.795 306.322 417.267C305.524 416.738 304.725 416.468 303.927 416.458C303.128 416.447 302.356 416.815 301.609 417.562C300.862 418.309 300.494 419.081 300.504 419.88C300.515 420.679 300.784 421.477 301.313 422.276C301.842 423.074 302.589 423.956 303.553 424.92C304.549 425.916 305.451 426.683 306.26 427.223C307.059 427.752 307.857 428.021 308.656 428.032C309.454 428.042 310.227 427.674 310.974 426.927C311.721 426.18 312.089 425.408 312.078 424.609C312.068 423.811 311.798 423.012 311.269 422.213C310.73 421.405 309.963 420.502 308.967 419.507Z" fill="url(#paint4_linear_2696_18228)"/>
<path d="M311.31 408.172L310.33 407.192L312.975 404.547L324.129 415.701L323.024 416.806L312.85 406.632L311.31 408.172Z" fill="url(#paint5_linear_2696_18228)"/>
<path d="M320.877 407.596C319.093 405.813 317.984 404.153 317.548 402.618C317.113 401.084 317.605 399.606 319.026 398.185C320.447 396.764 321.925 396.271 323.46 396.707C324.994 397.143 326.654 398.252 328.438 400.036C330.253 401.851 331.383 403.531 331.829 405.076C332.275 406.622 331.787 408.105 330.367 409.525C328.935 410.957 327.447 411.449 325.902 411.003C324.367 410.547 322.692 409.411 320.877 407.596ZM327.364 401.109C326.4 400.145 325.518 399.398 324.72 398.869C323.921 398.34 323.123 398.071 322.324 398.06C321.525 398.05 320.753 398.418 320.006 399.165C319.259 399.912 318.891 400.684 318.902 401.483C318.912 402.281 319.182 403.08 319.711 403.879C320.239 404.677 320.986 405.559 321.951 406.523C322.946 407.519 323.849 408.286 324.657 408.825C325.456 409.354 326.255 409.624 327.053 409.634C327.852 409.645 328.624 409.277 329.371 408.53C330.118 407.783 330.486 407.011 330.476 406.212C330.465 405.413 330.196 404.615 329.667 403.816C329.127 403.007 328.36 402.105 327.364 401.109Z" fill="url(#paint6_linear_2696_18228)"/>
<path d="M330.463 398.01C328.679 396.227 327.57 394.567 327.134 393.032C326.699 391.498 327.191 390.02 328.612 388.599C330.033 387.178 331.511 386.685 333.046 387.121C334.58 387.557 336.24 388.666 338.024 390.45C339.839 392.265 340.969 393.945 341.415 395.49C341.861 397.036 341.373 398.519 339.953 399.939C338.521 401.371 337.033 401.863 335.488 401.417C333.953 400.961 332.278 399.825 330.463 398.01ZM336.95 391.523C335.986 390.559 335.104 389.812 334.306 389.283C333.507 388.754 332.709 388.485 331.91 388.474C331.111 388.464 330.339 388.832 329.592 389.579C328.845 390.326 328.477 391.098 328.488 391.897C328.498 392.695 328.768 393.494 329.297 394.293C329.825 395.091 330.572 395.973 331.537 396.937C332.532 397.933 333.435 398.7 334.243 399.239C335.042 399.768 335.841 400.038 336.639 400.048C337.438 400.059 338.21 399.691 338.957 398.944C339.704 398.197 340.072 397.425 340.062 396.626C340.051 395.827 339.781 395.029 339.253 394.23C338.713 393.421 337.946 392.519 336.95 391.523Z" fill="url(#paint7_linear_2696_18228)"/>
<path d="M339.293 380.189L338.313 379.209L340.958 376.564L352.112 387.718L351.007 388.823L340.833 378.649L339.293 380.189Z" fill="url(#paint8_linear_2696_18228)"/>
<path d="M348.86 379.613C347.077 377.829 345.967 376.17 345.531 374.635C345.096 373.1 345.588 371.623 347.009 370.202C348.43 368.781 349.908 368.288 351.443 368.724C352.978 369.159 354.637 370.269 356.421 372.053C358.236 373.868 359.366 375.548 359.812 377.093C360.258 378.638 359.771 380.121 358.35 381.542C356.919 382.973 355.43 383.466 353.885 383.02C352.35 382.564 350.675 381.428 348.86 379.613ZM355.347 373.126C354.383 372.162 353.501 371.415 352.703 370.886C351.904 370.357 351.106 370.088 350.307 370.077C349.509 370.067 348.736 370.435 347.989 371.182C347.243 371.928 346.874 372.701 346.885 373.5C346.895 374.298 347.165 375.097 347.694 375.895C348.223 376.694 348.969 377.575 349.934 378.54C350.929 379.536 351.832 380.303 352.641 380.842C353.439 381.371 354.238 381.641 355.036 381.651C355.835 381.662 356.608 381.293 357.354 380.547C358.101 379.8 358.469 379.027 358.459 378.229C358.448 377.43 358.179 376.632 357.65 375.833C357.111 375.024 356.343 374.122 355.347 373.126Z" fill="url(#paint9_linear_2696_18228)"/>
<path d="M358.446 370.027C356.663 368.243 355.553 366.584 355.117 365.049C354.682 363.514 355.174 362.037 356.595 360.616C358.016 359.195 359.494 358.702 361.029 359.138C362.564 359.573 364.223 360.683 366.007 362.467C367.822 364.282 368.952 365.962 369.398 367.507C369.844 369.052 369.357 370.535 367.936 371.956C366.505 373.387 365.016 373.88 363.471 373.434C361.936 372.978 360.261 371.842 358.446 370.027ZM364.933 363.54C363.969 362.576 363.087 361.829 362.289 361.3C361.49 360.771 360.692 360.502 359.893 360.491C359.095 360.481 358.322 360.849 357.575 361.596C356.829 362.342 356.46 363.115 356.471 363.914C356.481 364.712 356.751 365.511 357.28 366.309C357.809 367.108 358.555 367.989 359.52 368.954C360.515 369.95 361.418 370.717 362.227 371.256C363.025 371.785 363.824 372.055 364.622 372.065C365.421 372.076 366.194 371.707 366.94 370.961C367.687 370.214 368.055 369.441 368.045 368.643C368.034 367.844 367.765 367.046 367.236 366.247C366.696 365.438 365.929 364.536 364.933 363.54Z" fill="url(#paint10_linear_2696_18228)"/>
<path d="M367.277 352.206L366.297 351.226L368.941 348.581L380.095 359.735L378.991 360.839L368.817 350.665L367.277 352.206Z" fill="url(#paint11_linear_2696_18228)"/>
<path d="M376.844 351.63C375.06 349.846 373.95 348.187 373.515 346.652C373.079 345.117 373.572 343.639 374.992 342.219C376.413 340.798 377.891 340.305 379.426 340.741C380.961 341.176 382.62 342.286 384.404 344.07C386.219 345.885 387.349 347.565 387.795 349.11C388.241 350.655 387.754 352.138 386.333 353.559C384.902 354.99 383.414 355.483 381.868 355.037C380.333 354.581 378.659 353.445 376.844 351.63ZM383.331 345.143C382.366 344.179 381.485 343.432 380.686 342.903C379.888 342.374 379.089 342.104 378.29 342.094C377.492 342.084 376.719 342.452 375.972 343.199C375.226 343.945 374.858 344.718 374.868 345.516C374.878 346.315 375.148 347.114 375.677 347.912C376.206 348.711 376.953 349.592 377.917 350.557C378.913 351.552 379.815 352.32 380.624 352.859C381.422 353.388 382.221 353.658 383.02 353.668C383.818 353.678 384.591 353.31 385.337 352.563C386.084 351.817 386.452 351.044 386.442 350.246C386.432 349.447 386.162 348.648 385.633 347.85C385.094 347.041 384.326 346.139 383.331 345.143Z" fill="url(#paint12_linear_2696_18228)"/>
<path d="M386.43 342.044C384.646 340.26 383.536 338.601 383.101 337.066C382.665 335.531 383.158 334.053 384.578 332.633C385.999 331.212 387.477 330.719 389.012 331.155C390.547 331.59 392.206 332.7 393.99 334.484C395.805 336.299 396.935 337.979 397.381 339.524C397.827 341.069 397.34 342.552 395.919 343.973C394.488 345.404 393 345.897 391.454 345.451C389.919 344.995 388.245 343.859 386.43 342.044ZM392.917 335.557C391.952 334.593 391.071 333.846 390.272 333.317C389.473 332.788 388.675 332.518 387.876 332.508C387.078 332.498 386.305 332.866 385.558 333.613C384.812 334.359 384.444 335.132 384.454 335.93C384.464 336.729 384.734 337.528 385.263 338.326C385.792 339.125 386.539 340.006 387.503 340.971C388.499 341.966 389.401 342.734 390.21 343.273C391.008 343.802 391.807 344.072 392.606 344.082C393.404 344.092 394.177 343.724 394.923 342.977C395.67 342.231 396.038 341.458 396.028 340.66C396.018 339.861 395.748 339.062 395.219 338.264C394.68 337.455 393.912 336.553 392.917 335.557Z" fill="url(#paint13_linear_2696_18228)"/>
<path d="M395.26 324.222L394.28 323.242L396.924 320.598L408.078 331.752L406.974 332.856L396.8 322.682L395.26 324.222Z" fill="url(#paint14_linear_2696_18228)"/>
<path d="M404.827 323.647C403.043 321.863 401.933 320.204 401.498 318.669C401.062 317.134 401.555 315.656 402.976 314.235C404.396 312.814 405.874 312.322 407.409 312.757C408.944 313.193 410.603 314.303 412.387 316.087C414.202 317.901 415.333 319.581 415.779 321.127C416.224 322.672 415.737 324.155 414.316 325.576C412.885 327.007 411.397 327.5 409.852 327.054C408.317 326.597 406.642 325.462 404.827 323.647ZM411.314 317.16C410.349 316.195 409.468 315.449 408.669 314.92C407.871 314.391 407.072 314.121 406.274 314.111C405.475 314.1 404.702 314.469 403.956 315.215C403.209 315.962 402.841 316.735 402.851 317.533C402.862 318.332 403.131 319.13 403.66 319.929C404.189 320.727 404.936 321.609 405.9 322.573C406.896 323.569 407.798 324.337 408.607 324.876C409.406 325.405 410.204 325.674 411.003 325.685C411.801 325.695 412.574 325.327 413.321 324.58C414.067 323.834 414.435 323.061 414.425 322.262C414.415 321.464 414.145 320.665 413.616 319.867C413.077 319.058 412.309 318.156 411.314 317.16Z" fill="url(#paint15_linear_2696_18228)"/>
<path d="M414.413 314.061C412.629 312.277 411.519 310.618 411.084 309.083C410.648 307.548 411.141 306.07 412.562 304.649C413.982 303.228 415.46 302.736 416.995 303.171C418.53 303.607 420.189 304.717 421.973 306.501C423.788 308.315 424.919 309.996 425.365 311.541C425.81 313.086 425.323 314.569 423.902 315.99C422.471 317.421 420.983 317.914 419.438 317.468C417.903 317.011 416.228 315.876 414.413 314.061ZM420.9 307.574C419.935 306.609 419.054 305.863 418.255 305.334C417.457 304.805 416.658 304.535 415.86 304.525C415.061 304.514 414.288 304.883 413.542 305.629C412.795 306.376 412.427 307.149 412.437 307.947C412.448 308.746 412.717 309.544 413.246 310.343C413.775 311.141 414.522 312.023 415.486 312.988C416.482 313.983 417.384 314.751 418.193 315.29C418.992 315.819 419.79 316.088 420.589 316.099C421.387 316.109 422.16 315.741 422.907 314.994C423.653 314.248 424.021 313.475 424.011 312.676C424.001 311.878 423.731 311.079 423.202 310.281C422.663 309.472 421.895 308.57 420.9 307.574Z" fill="url(#paint16_linear_2696_18228)"/>
<path d="M423.243 296.239L422.263 295.259L424.908 292.615L436.061 303.768L434.957 304.873L424.783 294.699L423.243 296.239Z" fill="url(#paint17_linear_2696_18228)"/>
<path d="M432.81 295.664C431.026 293.88 429.917 292.221 429.481 290.686C429.045 289.151 429.538 287.673 430.959 286.252C432.38 284.831 433.858 284.339 435.392 284.774C436.927 285.21 438.587 286.32 440.37 288.103C442.185 289.918 443.316 291.598 443.762 293.144C444.208 294.689 443.72 296.172 442.299 297.593C440.868 299.024 439.38 299.516 437.835 299.071C436.3 298.614 434.625 297.479 432.81 295.664ZM439.297 289.177C438.333 288.212 437.451 287.465 436.652 286.937C435.854 286.408 435.055 286.138 434.257 286.128C433.458 286.117 432.686 286.485 431.939 287.232C431.192 287.979 430.824 288.751 430.834 289.55C430.845 290.349 431.114 291.147 431.643 291.946C432.172 292.744 432.919 293.626 433.883 294.59C434.879 295.586 435.781 296.353 436.59 296.893C437.389 297.422 438.187 297.691 438.986 297.702C439.784 297.712 440.557 297.344 441.304 296.597C442.051 295.85 442.419 295.078 442.408 294.279C442.398 293.481 442.128 292.682 441.599 291.883C441.06 291.075 440.293 290.172 439.297 289.177Z" fill="url(#paint18_linear_2696_18228)"/>
<path d="M442.396 286.078C440.612 284.294 439.503 282.635 439.067 281.1C438.631 279.565 439.124 278.087 440.545 276.666C441.966 275.245 443.443 274.753 444.978 275.188C446.513 275.624 448.173 276.734 449.956 278.517C451.771 280.332 452.902 282.012 453.348 283.558C453.794 285.103 453.306 286.586 451.885 288.007C450.454 289.438 448.966 289.93 447.421 289.485C445.886 289.028 444.211 287.893 442.396 286.078ZM448.883 279.591C447.919 278.626 447.037 277.88 446.238 277.351C445.44 276.822 444.641 276.552 443.843 276.542C443.044 276.531 442.272 276.899 441.525 277.646C440.778 278.393 440.41 279.165 440.42 279.964C440.431 280.763 440.7 281.561 441.229 282.36C441.758 283.158 442.505 284.04 443.469 285.004C444.465 286 445.367 286.767 446.176 287.307C446.975 287.836 447.773 288.105 448.572 288.116C449.37 288.126 450.143 287.758 450.89 287.011C451.637 286.264 452.005 285.492 451.994 284.693C451.984 283.895 451.714 283.096 451.185 282.298C450.646 281.489 449.879 280.586 448.883 279.591Z" fill="url(#paint19_linear_2696_18228)"/>
<path d="M451.226 268.256L450.246 267.276L452.891 264.631L464.045 275.785L462.94 276.89L452.766 266.716L451.226 268.256Z" fill="url(#paint20_linear_2696_18228)"/>
<path d="M460.793 267.68C459.009 265.897 457.9 264.237 457.464 262.702C457.029 261.168 457.521 259.69 458.942 258.269C460.363 256.848 461.841 256.355 463.376 256.791C464.91 257.227 466.57 258.336 468.354 260.12C470.169 261.935 471.299 263.615 471.745 265.16C472.191 266.706 471.703 268.189 470.283 269.609C468.851 271.041 467.363 271.533 465.818 271.087C464.283 270.631 462.608 269.495 460.793 267.68ZM467.28 261.193C466.316 260.229 465.434 259.482 464.636 258.953C463.837 258.424 463.039 258.155 462.24 258.144C461.441 258.134 460.669 258.502 459.922 259.249C459.175 259.996 458.807 260.768 458.818 261.567C458.828 262.365 459.098 263.164 459.627 263.963C460.155 264.761 460.902 265.643 461.867 266.607C462.862 267.603 463.765 268.37 464.573 268.909C465.372 269.438 466.171 269.708 466.969 269.718C467.768 269.729 468.54 269.361 469.287 268.614C470.034 267.867 470.402 267.095 470.392 266.296C470.381 265.497 470.111 264.699 469.583 263.9C469.043 263.091 468.276 262.189 467.28 261.193Z" fill="url(#paint21_linear_2696_18228)"/>
<path d="M470.379 258.095C468.595 256.311 467.486 254.651 467.05 253.116C466.615 251.582 467.107 250.104 468.528 248.683C469.949 247.262 471.427 246.769 472.962 247.205C474.496 247.641 476.156 248.75 477.94 250.534C479.755 252.349 480.885 254.029 481.331 255.574C481.777 257.12 481.289 258.603 479.869 260.023C478.437 261.455 476.949 261.947 475.404 261.501C473.869 261.045 472.194 259.909 470.379 258.095ZM476.866 251.608C475.902 250.643 475.02 249.896 474.222 249.367C473.423 248.838 472.625 248.569 471.826 248.558C471.027 248.548 470.255 248.916 469.508 249.663C468.761 250.41 468.393 251.182 468.404 251.981C468.414 252.779 468.684 253.578 469.213 254.377C469.741 255.175 470.488 256.057 471.453 257.021C472.448 258.017 473.35 258.784 474.159 259.323C474.958 259.852 475.757 260.122 476.555 260.132C477.354 260.143 478.126 259.775 478.873 259.028C479.62 258.281 479.988 257.509 479.978 256.71C479.967 255.911 479.697 255.113 479.169 254.314C478.629 253.505 477.862 252.603 476.866 251.608Z" fill="url(#paint22_linear_2696_18228)"/>
<path d="M479.209 240.273L478.229 239.293L480.874 236.648L492.028 247.802L490.923 248.907L480.749 238.733L479.209 240.273Z" fill="url(#paint23_linear_2696_18228)"/>
<path d="M488.776 239.697C486.993 237.914 485.883 236.254 485.447 234.719C485.012 233.184 485.504 231.707 486.925 230.286C488.346 228.865 489.824 228.372 491.359 228.808C492.894 229.243 494.553 230.353 496.337 232.137C498.152 233.952 499.282 235.632 499.728 237.177C500.174 238.722 499.687 240.205 498.266 241.626C496.835 243.057 495.346 243.55 493.801 243.104C492.266 242.648 490.591 241.512 488.776 239.697ZM495.263 233.21C494.299 232.246 493.417 231.499 492.619 230.97C491.82 230.441 491.022 230.172 490.223 230.161C489.425 230.151 488.652 230.519 487.905 231.266C487.159 232.012 486.79 232.785 486.801 233.584C486.811 234.382 487.081 235.181 487.61 235.979C488.139 236.778 488.885 237.659 489.85 238.624C490.845 239.62 491.748 240.387 492.557 240.926C493.355 241.455 494.154 241.725 494.952 241.735C495.751 241.746 496.523 241.377 497.27 240.631C498.017 239.884 498.385 239.111 498.375 238.313C498.364 237.514 498.095 236.716 497.566 235.917C497.026 235.108 496.259 234.206 495.263 233.21Z" fill="url(#paint24_linear_2696_18228)"/>
<path d="M498.362 230.111C496.579 228.328 495.469 226.668 495.033 225.133C494.598 223.598 495.09 222.121 496.511 220.7C497.932 219.279 499.41 218.786 500.945 219.222C502.48 219.657 504.139 220.767 505.923 222.551C507.738 224.366 508.868 226.046 509.314 227.591C509.76 229.136 509.273 230.619 507.852 232.04C506.421 233.471 504.932 233.964 503.387 233.518C501.852 233.062 500.177 231.926 498.362 230.111ZM504.849 223.624C503.885 222.66 503.003 221.913 502.205 221.384C501.406 220.855 500.608 220.586 499.809 220.575C499.011 220.565 498.238 220.933 497.491 221.68C496.745 222.426 496.376 223.199 496.387 223.998C496.397 224.796 496.667 225.595 497.196 226.393C497.725 227.192 498.471 228.073 499.436 229.038C500.431 230.034 501.334 230.801 502.143 231.34C502.941 231.869 503.74 232.139 504.538 232.149C505.337 232.16 506.109 231.791 506.856 231.045C507.603 230.298 507.971 229.525 507.961 228.727C507.95 227.928 507.681 227.13 507.152 226.331C506.612 225.522 505.845 224.62 504.849 223.624Z" fill="url(#paint25_linear_2696_18228)"/>
<path d="M507.193 212.29L506.213 211.31L508.857 208.665L520.011 219.819L518.907 220.923L508.733 210.749L507.193 212.29Z" fill="url(#paint26_linear_2696_18228)"/>
<path d="M516.76 211.714C514.976 209.93 513.866 208.271 513.431 206.736C512.995 205.201 513.488 203.723 514.908 202.303C516.329 200.882 517.807 200.389 519.342 200.825C520.877 201.26 522.536 202.37 524.32 204.154C526.135 205.969 527.265 207.649 527.711 209.194C528.157 210.739 527.67 212.222 526.249 213.643C524.818 215.074 523.33 215.567 521.784 215.121C520.249 214.665 518.575 213.529 516.76 211.714ZM523.247 205.227C522.282 204.263 521.401 203.516 520.602 202.987C519.803 202.458 519.005 202.188 518.206 202.178C517.408 202.168 516.635 202.536 515.888 203.283C515.142 204.029 514.774 204.802 514.784 205.6C514.794 206.399 515.064 207.198 515.593 207.996C516.122 208.795 516.869 209.676 517.833 210.641C518.829 211.636 519.731 212.404 520.54 212.943C521.338 213.472 522.137 213.742 522.936 213.752C523.734 213.762 524.507 213.394 525.253 212.647C526 211.901 526.368 211.128 526.358 210.33C526.348 209.531 526.078 208.732 525.549 207.934C525.01 207.125 524.242 206.223 523.247 205.227Z" fill="url(#paint27_linear_2696_18228)"/>
<path d="M526.346 202.128C524.562 200.344 523.452 198.685 523.017 197.15C522.581 195.615 523.074 194.137 524.494 192.717C525.915 191.296 527.393 190.803 528.928 191.239C530.463 191.674 532.122 192.784 533.906 194.568C535.721 196.383 536.851 198.063 537.297 199.608C537.743 201.153 537.256 202.636 535.835 204.057C534.404 205.488 532.916 205.981 531.37 205.535C529.835 205.079 528.161 203.943 526.346 202.128ZM532.833 195.641C531.868 194.677 530.987 193.93 530.188 193.401C529.389 192.872 528.591 192.602 527.792 192.592C526.994 192.582 526.221 192.95 525.474 193.697C524.728 194.443 524.36 195.216 524.37 196.014C524.38 196.813 524.65 197.612 525.179 198.41C525.708 199.209 526.455 200.09 527.419 201.055C528.415 202.05 529.317 202.818 530.126 203.357C530.924 203.886 531.723 204.156 532.522 204.166C533.32 204.176 534.093 203.808 534.839 203.061C535.586 202.315 535.954 201.542 535.944 200.744C535.934 199.945 535.664 199.146 535.135 198.348C534.596 197.539 533.828 196.637 532.833 195.641Z" fill="url(#paint28_linear_2696_18228)"/>
<path d="M535.176 184.306L534.196 183.326L536.84 180.682L547.994 191.836L546.89 192.94L536.716 182.766L535.176 184.306Z" fill="url(#paint29_linear_2696_18228)"/>
<path d="M544.743 183.731C542.959 181.947 541.849 180.288 541.414 178.753C540.978 177.218 541.471 175.74 542.892 174.319C544.312 172.898 545.79 172.406 547.325 172.841C548.86 173.277 550.519 174.387 552.303 176.171C554.118 177.985 555.249 179.666 555.694 181.211C556.14 182.756 555.653 184.239 554.232 185.66C552.801 187.091 551.313 187.584 549.768 187.138C548.233 186.681 546.558 185.546 544.743 183.731ZM551.23 177.244C550.265 176.279 549.384 175.533 548.585 175.004C547.787 174.475 546.988 174.205 546.19 174.195C545.391 174.184 544.618 174.553 543.872 175.299C543.125 176.046 542.757 176.819 542.767 177.617C542.778 178.416 543.047 179.214 543.576 180.013C544.105 180.811 544.852 181.693 545.816 182.658C546.812 183.653 547.714 184.421 548.523 184.96C549.322 185.489 550.12 185.758 550.919 185.769C551.717 185.779 552.49 185.411 553.237 184.664C553.983 183.918 554.351 183.145 554.341 182.346C554.331 181.548 554.061 180.749 553.532 179.951C552.993 179.142 552.225 178.24 551.23 177.244Z" fill="url(#paint30_linear_2696_18228)"/>
<path d="M554.329 174.145C552.545 172.361 551.435 170.702 551 169.167C550.564 167.632 551.057 166.154 552.478 164.733C553.898 163.313 555.376 162.82 556.911 163.255C558.446 163.691 560.105 164.801 561.889 166.585C563.704 168.399 564.835 170.08 565.28 171.625C565.726 173.17 565.239 174.653 563.818 176.074C562.387 177.505 560.899 177.998 559.354 177.552C557.819 177.095 556.144 175.96 554.329 174.145ZM560.816 167.658C559.851 166.693 558.97 165.947 558.171 165.418C557.373 164.889 556.574 164.619 555.776 164.609C554.977 164.598 554.204 164.967 553.458 165.713C552.711 166.46 552.343 167.233 552.353 168.031C552.364 168.83 552.633 169.628 553.162 170.427C553.691 171.225 554.438 172.107 555.402 173.072C556.398 174.067 557.3 174.835 558.109 175.374C558.908 175.903 559.706 176.172 560.505 176.183C561.303 176.193 562.076 175.825 562.823 175.078C563.569 174.332 563.937 173.559 563.927 172.76C563.917 171.962 563.647 171.163 563.118 170.365C562.579 169.556 561.811 168.654 560.816 167.658Z" fill="url(#paint31_linear_2696_18228)"/>
<path d="M563.159 156.323L562.179 155.343L564.824 152.699L575.977 163.852L574.873 164.957L564.699 154.783L563.159 156.323Z" fill="url(#paint32_linear_2696_18228)"/>
<path d="M572.726 155.748C570.942 153.964 569.833 152.305 569.397 150.77C568.961 149.235 569.454 147.757 570.875 146.336C572.296 144.915 573.773 144.423 575.308 144.858C576.843 145.294 578.503 146.404 580.286 148.187C582.101 150.002 583.232 151.682 583.678 153.228C584.124 154.773 583.636 156.256 582.215 157.677C580.784 159.108 579.296 159.6 577.751 159.155C576.216 158.698 574.541 157.563 572.726 155.748ZM579.213 149.261C578.249 148.296 577.367 147.55 576.568 147.021C575.77 146.492 574.971 146.222 574.173 146.212C573.374 146.201 572.602 146.569 571.855 147.316C571.108 148.063 570.74 148.835 570.75 149.634C570.761 150.433 571.03 151.231 571.559 152.03C572.088 152.828 572.835 153.71 573.799 154.674C574.795 155.67 575.697 156.437 576.506 156.977C577.305 157.506 578.103 157.775 578.902 157.786C579.7 157.796 580.473 157.428 581.22 156.681C581.967 155.934 582.335 155.162 582.324 154.363C582.314 153.565 582.044 152.766 581.515 151.968C580.976 151.159 580.209 150.256 579.213 149.261Z" fill="url(#paint33_linear_2696_18228)"/>
<path d="M582.312 146.162C580.528 144.378 579.419 142.719 578.983 141.184C578.547 139.649 579.04 138.171 580.461 136.75C581.882 135.329 583.359 134.837 584.894 135.272C586.429 135.708 588.089 136.818 589.872 138.601C591.687 140.416 592.818 142.096 593.264 143.642C593.71 145.187 593.222 146.67 591.801 148.091C590.37 149.522 588.882 150.015 587.337 149.569C585.802 149.112 584.127 147.977 582.312 146.162ZM588.799 139.675C587.835 138.71 586.953 137.964 586.154 137.435C585.356 136.906 584.557 136.636 583.759 136.626C582.96 136.615 582.188 136.983 581.441 137.73C580.694 138.477 580.326 139.249 580.336 140.048C580.347 140.847 580.616 141.645 581.145 142.444C581.674 143.242 582.421 144.124 583.385 145.088C584.381 146.084 585.283 146.851 586.092 147.391C586.891 147.92 587.689 148.189 588.488 148.2C589.286 148.21 590.059 147.842 590.806 147.095C591.552 146.348 591.921 145.576 591.91 144.777C591.9 143.979 591.63 143.18 591.101 142.382C590.562 141.573 589.795 140.67 588.799 139.675Z" fill="url(#paint34_linear_2696_18228)"/>
<path d="M591.142 128.34L590.162 127.36L592.807 124.715L603.961 135.869L602.856 136.974L592.682 126.8L591.142 128.34Z" fill="url(#paint35_linear_2696_18228)"/>
<path d="M600.709 127.765C598.925 125.981 597.816 124.321 597.38 122.786C596.945 121.252 597.437 119.774 598.858 118.353C600.279 116.932 601.757 116.439 603.292 116.875C604.826 117.311 606.486 118.42 608.27 120.204C610.085 122.019 611.215 123.699 611.661 125.244C612.107 126.79 611.619 128.273 610.199 129.693C608.767 131.125 607.279 131.617 605.734 131.171C604.199 130.715 602.524 129.579 600.709 127.765ZM607.196 121.278C606.232 120.313 605.35 119.566 604.552 119.037C603.753 118.508 602.955 118.239 602.156 118.228C601.357 118.218 600.585 118.586 599.838 119.333C599.091 120.08 598.723 120.852 598.734 121.651C598.744 122.449 599.014 123.248 599.543 124.047C600.071 124.845 600.818 125.727 601.783 126.691C602.778 127.687 603.68 128.454 604.489 128.993C605.288 129.522 606.087 129.792 606.885 129.802C607.684 129.813 608.456 129.445 609.203 128.698C609.95 127.951 610.318 127.179 610.308 126.38C610.297 125.581 610.027 124.783 609.499 123.984C608.959 123.175 608.192 122.273 607.196 121.278Z" fill="url(#paint36_linear_2696_18228)"/>
<path d="M610.295 118.179C608.511 116.395 607.402 114.735 606.966 113.2C606.531 111.666 607.023 110.188 608.444 108.767C609.865 107.346 611.343 106.853 612.878 107.289C614.412 107.725 616.072 108.834 617.856 110.618C619.671 112.433 620.801 114.113 621.247 115.658C621.693 117.204 621.205 118.687 619.785 120.108C618.353 121.539 616.865 122.031 615.32 121.585C613.785 121.129 612.11 119.993 610.295 118.179ZM616.782 111.692C615.818 110.727 614.936 109.98 614.138 109.451C613.339 108.922 612.541 108.653 611.742 108.642C610.943 108.632 610.171 109 609.424 109.747C608.677 110.494 608.309 111.266 608.32 112.065C608.33 112.863 608.6 113.662 609.128 114.461C609.657 115.259 610.404 116.141 611.369 117.105C612.364 118.101 613.266 118.868 614.075 119.407C614.874 119.936 615.673 120.206 616.471 120.216C617.27 120.227 618.042 119.859 618.789 119.112C619.536 118.365 619.904 117.593 619.893 116.794C619.883 115.995 619.613 115.197 619.085 114.398C618.545 113.589 617.778 112.687 616.782 111.692Z" fill="url(#paint37_linear_2696_18228)"/>
<path d="M619.125 100.357L618.145 99.3767L620.79 96.7321L631.944 107.886L630.839 108.991L620.665 98.8167L619.125 100.357Z" fill="url(#paint38_linear_2696_18228)"/>
<path d="M628.692 99.7813C626.909 97.9975 625.799 96.3382 625.363 94.8033C624.928 93.2684 625.42 91.7905 626.841 90.3697C628.262 88.9489 629.74 88.4563 631.275 88.8919C632.81 89.3274 634.469 90.4371 636.253 92.2209C638.068 94.0358 639.198 95.7159 639.644 97.2612C640.09 98.8065 639.603 100.289 638.182 101.71C636.751 103.141 635.262 103.634 633.717 103.188C632.182 102.732 630.507 101.596 628.692 99.7813ZM635.179 93.2943C634.215 92.3298 633.333 91.5831 632.535 91.0542C631.736 90.5253 630.938 90.2556 630.139 90.2453C629.341 90.2349 628.568 90.6031 627.821 91.3498C627.075 92.0965 626.706 92.8691 626.717 93.6677C626.727 94.4662 626.997 95.2648 627.526 96.0633C628.055 96.8619 628.801 97.7434 629.766 98.7079C630.761 99.7035 631.664 100.471 632.473 101.01C633.271 101.539 634.07 101.809 634.868 101.819C635.667 101.83 636.439 101.461 637.186 100.715C637.933 99.968 638.301 99.1953 638.291 98.3968C638.28 97.5982 638.011 96.7997 637.482 96.0011C636.942 95.1922 636.175 94.2899 635.179 93.2943Z" fill="url(#paint39_linear_2696_18228)"/>
<path d="M638.278 90.1953C636.495 88.4115 635.385 86.7522 634.949 85.2173C634.514 83.6824 635.006 82.2045 636.427 80.7837C637.848 79.3629 639.326 78.8703 640.861 79.3059C642.396 79.7415 644.055 80.8511 645.839 82.6349C647.654 84.4498 648.784 86.1299 649.23 87.6752C649.676 89.2205 649.189 90.7035 647.768 92.1243C646.337 93.5555 644.848 94.0481 643.303 93.6022C641.768 93.1458 640.093 92.0102 638.278 90.1953ZM644.765 83.7083C643.801 82.7438 642.919 81.9971 642.121 81.4682C641.322 80.9393 640.524 80.6696 639.725 80.6593C638.927 80.6489 638.154 81.0171 637.407 81.7638C636.661 82.5105 636.292 83.2831 636.303 84.0817C636.313 84.8802 636.583 85.6788 637.112 86.4773C637.641 87.2759 638.387 88.1574 639.352 89.1219C640.347 90.1175 641.25 90.885 642.059 91.4243C642.857 91.9532 643.656 92.2228 644.454 92.2332C645.253 92.2436 646.025 91.8754 646.772 91.1287C647.519 90.382 647.887 89.6094 647.877 88.8108C647.866 88.0122 647.597 87.2137 647.068 86.4151C646.528 85.6062 645.761 84.7039 644.765 83.7083Z" fill="url(#paint40_linear_2696_18228)"/>
<path d="M647.109 72.3736L646.129 71.3935L648.773 68.7489L659.927 79.9029L658.823 81.0074L648.649 70.8335L647.109 72.3736Z" fill="url(#paint41_linear_2696_18228)"/>
<path d="M656.676 71.7981C654.892 70.0143 653.782 68.355 653.347 66.8201C652.911 65.2852 653.404 63.8073 654.824 62.3865C656.245 60.9657 657.723 60.4731 659.258 60.9087C660.793 61.3443 662.452 62.4539 664.236 64.2377C666.051 66.0526 667.181 67.7327 667.627 69.278C668.073 70.8233 667.586 72.3063 666.165 73.7271C664.734 75.1583 663.246 75.6509 661.7 75.2049C660.165 74.7486 658.491 73.613 656.676 71.7981ZM663.163 65.3111C662.198 64.3466 661.317 63.5999 660.518 63.071C659.719 62.5421 658.921 62.2725 658.122 62.2621C657.324 62.2517 656.551 62.6199 655.804 63.3666C655.058 64.1133 654.69 64.8859 654.7 65.6845C654.71 66.483 654.98 67.2816 655.509 68.0801C656.038 68.8787 656.785 69.7602 657.749 70.7247C658.745 71.7203 659.647 72.4878 660.456 73.0271C661.254 73.556 662.053 73.8256 662.852 73.836C663.65 73.8464 664.423 73.4782 665.169 72.7315C665.916 71.9848 666.284 71.2122 666.274 70.4136C666.264 69.6151 665.994 68.8165 665.465 68.0179C664.926 67.209 664.158 66.3067 663.163 65.3111Z" fill="url(#paint42_linear_2696_18228)"/>
<path d="M666.262 62.2121C664.478 60.4283 663.368 58.769 662.933 57.2341C662.497 55.6992 662.99 54.2213 664.41 52.8005C665.831 51.3797 667.309 50.8871 668.844 51.3227C670.379 51.7583 672.038 52.8679 673.822 54.6517C675.637 56.4666 676.767 58.1467 677.213 59.692C677.659 61.2373 677.172 62.7203 675.751 64.1411C674.32 65.5723 672.832 66.0649 671.286 65.6189C669.751 65.1626 668.077 64.027 666.262 62.2121ZM672.749 55.7251C671.784 54.7606 670.903 54.0139 670.104 53.485C669.305 52.9561 668.507 52.6865 667.708 52.6761C666.91 52.6657 666.137 53.0339 665.39 53.7806C664.644 54.5273 664.276 55.2999 664.286 56.0985C664.296 56.897 664.566 57.6956 665.095 58.4941C665.624 59.2927 666.371 60.1742 667.335 61.1387C668.331 62.1343 669.233 62.9018 670.042 63.4411C670.84 63.97 671.639 64.2396 672.437 64.25C673.236 64.2604 674.009 63.8922 674.755 63.1455C675.502 62.3988 675.87 61.6262 675.86 60.8276C675.849 60.0291 675.58 59.2305 675.051 58.4319C674.512 57.623 673.744 56.7207 672.749 55.7251Z" fill="url(#paint43_linear_2696_18228)"/>
<path d="M675.092 44.3904L674.112 43.4103L676.756 40.7658L687.91 51.9197L686.806 53.0242L676.632 42.8503L675.092 44.3904Z" fill="url(#paint44_linear_2696_18228)"/>
<path d="M684.659 43.8149C682.875 42.0311 681.765 40.3718 681.33 38.8369C680.894 37.302 681.387 35.8241 682.808 34.4033C684.228 32.9825 685.706 32.4899 687.241 32.9255C688.776 33.3611 690.435 34.4707 692.219 36.2545C694.034 38.0694 695.165 39.7495 695.61 41.2948C696.056 42.8401 695.569 44.3231 694.148 45.7439C692.717 47.1751 691.229 47.6677 689.684 47.2217C688.149 46.7654 686.474 45.6298 684.659 43.8149ZM691.146 37.3279C690.181 36.3634 689.3 35.6167 688.501 35.0878C687.703 34.5589 686.904 34.2893 686.106 34.2789C685.307 34.2685 684.534 34.6367 683.788 35.3834C683.041 36.1301 682.673 36.9027 682.683 37.7013C682.694 38.4998 682.963 39.2984 683.492 40.0969C684.021 40.8955 684.768 41.777 685.732 42.7415C686.728 43.7371 687.63 44.5046 688.439 45.0439C689.238 45.5728 690.036 45.8424 690.835 45.8528C691.633 45.8632 692.406 45.495 693.153 44.7483C693.899 44.0016 694.267 43.229 694.257 42.4304C694.247 41.6319 693.977 40.8333 693.448 40.0347C692.909 39.2258 692.141 38.3235 691.146 37.3279Z" fill="url(#paint45_linear_2696_18228)"/>
<path d="M694.245 34.2289C692.461 32.4451 691.351 30.7858 690.916 29.2509C690.48 27.716 690.973 26.2381 692.394 24.8173C693.814 23.3965 695.292 22.9039 696.827 23.3395C698.362 23.7751 700.021 24.8847 701.805 26.6685C703.62 28.4834 704.751 30.1635 705.196 31.7088C705.642 33.2541 705.155 34.7371 703.734 36.1579C702.303 37.5891 700.815 38.0817 699.27 37.6357C697.735 37.1794 696.06 36.0438 694.245 34.2289ZM700.732 27.7419C699.767 26.7774 698.886 26.0307 698.087 25.5018C697.289 24.9729 696.49 24.7033 695.692 24.6929C694.893 24.6825 694.12 25.0507 693.374 25.7974C692.627 26.5441 692.259 27.3167 692.269 28.1153C692.28 28.9138 692.549 29.7124 693.078 30.5109C693.607 31.3095 694.354 32.191 695.318 33.1555C696.314 34.1511 697.216 34.9186 698.025 35.4579C698.824 35.9868 699.622 36.2564 700.421 36.2668C701.219 36.2772 701.992 35.909 702.739 35.1623C703.485 34.4156 703.853 33.643 703.843 32.8444C703.833 32.0459 703.563 31.2473 703.034 30.4487C702.495 29.6398 701.727 28.7375 700.732 27.7419Z" fill="url(#paint46_linear_2696_18228)"/>
<path d="M703.075 16.4072L702.095 15.4271L704.74 12.7826L715.893 23.9365L714.789 25.041L704.615 14.8671L703.075 16.4072Z" fill="url(#paint47_linear_2696_18228)"/>
<path d="M712.642 15.8317C710.858 14.0479 709.749 12.3886 709.313 10.8537C708.877 9.31879 709.37 7.84094 710.791 6.42013C712.212 4.99931 713.689 4.5067 715.224 4.94228C716.759 5.37786 718.419 6.48753 720.202 8.27133C722.017 10.0862 723.148 11.7663 723.594 13.3116C724.04 14.8569 723.552 16.3399 722.131 17.7607C720.7 19.1919 719.212 19.6845 717.667 19.2385C716.132 18.7822 714.457 17.6466 712.642 15.8317ZM719.129 9.34472C718.165 8.38022 717.283 7.63353 716.484 7.10461C715.686 6.57569 714.887 6.30606 714.089 6.29569C713.29 6.28532 712.518 6.65347 711.771 7.40018C711.024 8.14688 710.656 8.9195 710.666 9.71806C710.677 10.5166 710.946 11.3152 711.475 12.1137C712.004 12.9123 712.751 13.7938 713.715 14.7583C714.711 15.7539 715.613 16.5214 716.422 17.0607C717.221 17.5896 718.019 17.8592 718.818 17.8696C719.616 17.88 720.389 17.5118 721.136 16.7651C721.882 16.0184 722.251 15.2458 722.24 14.4472C722.23 13.6487 721.96 12.8501 721.431 12.0515C720.892 11.2426 720.125 10.3403 719.129 9.34472Z" fill="url(#paint48_linear_2696_18228)"/>
<path d="M722.228 6.24573C720.444 4.46194 719.335 2.80258 718.899 1.26769C718.463 -0.267206 718.956 -1.74505 720.377 -3.16587C721.798 -4.58668 723.275 -5.07929 724.81 -4.64371C726.345 -4.20814 728.005 -3.09846 729.788 -1.31467C731.603 0.50024 732.734 2.18034 733.18 3.7256C733.626 5.27087 733.138 6.7539 731.717 8.17471C730.286 9.6059 728.798 10.0985 727.253 9.65254C725.718 9.19622 724.043 8.06064 722.228 6.24573ZM728.715 -0.241275C727.751 -1.20577 726.869 -1.95247 726.07 -2.48138C725.272 -3.0103 724.473 -3.27993 723.675 -3.29031C722.876 -3.30068 722.104 -2.93252 721.357 -2.18582C720.61 -1.43911 720.242 -0.666492 720.252 0.132068C720.263 0.930626 720.532 1.72919 721.061 2.52775C721.59 3.32631 722.337 4.20784 723.301 5.17234C724.297 6.16794 725.199 6.93538 726.008 7.47467C726.807 8.00359 727.605 8.27322 728.404 8.28359C729.202 8.29397 729.975 7.92581 730.722 7.17911C731.468 6.4324 731.837 5.65978 731.826 4.86122C731.816 4.06266 731.546 3.2641 731.017 2.46554C730.478 1.65661 729.711 0.754331 728.715 -0.241275Z" fill="url(#paint49_linear_2696_18228)"/>
<path d="M731.058 -11.576L730.078 -12.5561L732.723 -15.2006L743.877 -4.04674L742.772 -2.94223L732.598 -13.1161L731.058 -11.576Z" fill="url(#paint50_linear_2696_18228)"/>
<path d="M740.625 -12.1515C738.841 -13.9353 737.732 -15.5946 737.296 -17.1295C736.861 -18.6644 737.353 -20.1423 738.774 -21.5631C740.195 -22.9839 741.673 -23.4765 743.208 -23.0409C744.742 -22.6053 746.402 -21.4957 748.186 -19.7119C750.001 -17.897 751.131 -16.2169 751.577 -14.6716C752.023 -13.1263 751.535 -11.6433 750.115 -10.2225C748.683 -8.79131 747.195 -8.29872 745.65 -8.74466C744.115 -9.20098 742.44 -10.3366 740.625 -12.1515ZM747.112 -18.6385C746.148 -19.603 745.266 -20.3497 744.468 -20.8786C743.669 -21.4075 742.871 -21.6771 742.072 -21.6875C741.273 -21.6979 740.501 -21.3297 739.754 -20.583C739.007 -19.8363 738.639 -19.0637 738.65 -18.2651C738.66 -17.4666 738.93 -16.668 739.458 -15.8695C739.987 -15.0709 740.734 -14.1894 741.699 -13.2249C742.694 -12.2293 743.596 -11.4618 744.405 -10.9225C745.204 -10.3936 746.003 -10.124 746.801 -10.1136C747.6 -10.1032 748.372 -10.4714 749.119 -11.2181C749.866 -11.9648 750.234 -12.7374 750.223 -13.536C750.213 -14.3345 749.943 -15.1331 749.415 -15.9317C748.875 -16.7406 748.108 -17.6429 747.112 -18.6385Z" fill="url(#paint51_linear_2696_18228)"/>
<path d="M750.211 -21.7375C748.427 -23.5213 747.318 -25.1806 746.882 -26.7155C746.447 -28.2504 746.939 -29.7283 748.36 -31.1491C749.781 -32.5699 751.259 -33.0625 752.794 -32.6269C754.328 -32.1913 755.988 -31.0817 757.772 -29.2979C759.587 -27.483 760.717 -25.8029 761.163 -24.2576C761.609 -22.7123 761.121 -21.2293 759.701 -19.8085C758.269 -18.3773 756.781 -17.8847 755.236 -18.3307C753.701 -18.787 752.026 -19.9226 750.211 -21.7375ZM756.698 -28.2245C755.734 -29.189 754.852 -29.9357 754.054 -30.4646C753.255 -30.9935 752.456 -31.2631 751.658 -31.2735C750.859 -31.2839 750.087 -30.9157 749.34 -30.169C748.593 -29.4223 748.225 -28.6497 748.236 -27.8511C748.246 -27.0526 748.516 -26.254 749.044 -25.4554C749.573 -24.6569 750.32 -23.7754 751.285 -22.8109C752.28 -21.8153 753.182 -21.0478 753.991 -20.5085C754.79 -19.9796 755.589 -19.71 756.387 -19.6996C757.186 -19.6892 757.958 -20.0574 758.705 -20.8041C759.452 -21.5508 759.82 -22.3234 759.809 -23.122C759.799 -23.9205 759.529 -24.7191 759.001 -25.5177C758.461 -26.3266 757.694 -27.2289 756.698 -28.2245Z" fill="url(#paint52_linear_2696_18228)"/>
<path d="M759.041 -39.5592L758.061 -40.5393L760.706 -43.1838L771.86 -32.0299L770.755 -30.9254L760.581 -41.0993L759.041 -39.5592Z" fill="url(#paint53_linear_2696_18228)"/>
<path d="M768.608 -40.1347C766.825 -41.9185 765.715 -43.5778 765.279 -45.1127C764.844 -46.6476 765.336 -48.1255 766.757 -49.5463C768.178 -50.9671 769.656 -51.4597 771.191 -51.0241C772.726 -50.5885 774.385 -49.4789 776.169 -47.6951C777.984 -45.8802 779.114 -44.2001 779.56 -42.6548C780.006 -41.1095 779.519 -39.6265 778.098 -38.2057C776.667 -36.7745 775.178 -36.2819 773.633 -36.7279C772.098 -37.1842 770.423 -38.3198 768.608 -40.1347ZM775.095 -46.6217C774.131 -47.5862 773.249 -48.3329 772.451 -48.8618C771.652 -49.3907 770.854 -49.6603 770.055 -49.6707C769.257 -49.6811 768.484 -49.3129 767.737 -48.5662C766.991 -47.8195 766.622 -47.0469 766.633 -46.2483C766.643 -45.4498 766.913 -44.6512 767.442 -43.8527C767.971 -43.0541 768.717 -42.1726 769.682 -41.2081C770.677 -40.2125 771.58 -39.445 772.389 -38.9057C773.187 -38.3768 773.986 -38.1072 774.784 -38.0968C775.583 -38.0864 776.355 -38.4546 777.102 -39.2013C777.849 -39.948 778.217 -40.7206 778.207 -41.5192C778.196 -42.3177 777.927 -43.1163 777.398 -43.9149C776.858 -44.7238 776.091 -45.6261 775.095 -46.6217Z" fill="url(#paint54_linear_2696_18228)"/>
<path d="M778.194 -49.7207C776.411 -51.5045 775.301 -53.1638 774.865 -54.6987C774.43 -56.2336 774.922 -57.7114 776.343 -59.1323C777.764 -60.5531 779.242 -61.0457 780.777 -60.6101C782.312 -60.1745 783.971 -59.0649 785.755 -57.2811C787.57 -55.4662 788.7 -53.7861 789.146 -52.2408C789.592 -50.6955 789.105 -49.2125 787.684 -47.7917C786.253 -46.3605 784.764 -45.8679 783.219 -46.3139C781.684 -46.7702 780.009 -47.9058 778.194 -49.7207ZM784.681 -56.2077C783.717 -57.1722 782.835 -57.9189 782.037 -58.4478C781.238 -58.9767 780.44 -59.2463 779.641 -59.2567C778.843 -59.2671 778.07 -58.8989 777.323 -58.1522C776.577 -57.4055 776.208 -56.6329 776.219 -55.8343C776.229 -55.0358 776.499 -54.2372 777.028 -53.4386C777.557 -52.6401 778.303 -51.7586 779.268 -50.7941C780.263 -49.7985 781.166 -49.031 781.975 -48.4917C782.773 -47.9628 783.572 -47.6932 784.37 -47.6828C785.169 -47.6724 785.941 -48.0406 786.688 -48.7873C787.435 -49.534 787.803 -50.3066 787.793 -51.1052C787.782 -51.9037 787.513 -52.7023 786.984 -53.5009C786.444 -54.3098 785.677 -55.2121 784.681 -56.2077Z" fill="url(#paint55_linear_2696_18228)"/>
<path d="M787.025 -67.5424L786.045 -68.5225L788.689 -71.167L799.843 -60.0131L798.738 -58.9086L788.565 -69.0825L787.025 -67.5424Z" fill="url(#paint56_linear_2696_18228)"/>
<path d="M796.592 -68.1179C794.808 -69.9017 793.698 -71.561 793.263 -73.0959C792.827 -74.6308 793.32 -76.1087 794.74 -77.5295C796.161 -78.9503 797.639 -79.4429 799.174 -79.0073C800.709 -78.5717 802.368 -77.4621 804.152 -75.6783C805.967 -73.8634 807.097 -72.1833 807.543 -70.638C807.989 -69.0927 807.502 -67.6097 806.081 -66.1889C804.65 -64.7577 803.162 -64.2651 801.616 -64.7111C800.081 -65.1674 798.407 -66.303 796.592 -68.1179ZM803.079 -74.6049C802.114 -75.5694 801.233 -76.3161 800.434 -76.845C799.635 -77.3739 798.837 -77.6435 798.038 -77.6539C797.24 -77.6643 796.467 -77.2961 795.72 -76.5494C794.974 -75.8027 794.606 -75.0301 794.616 -74.2315C794.626 -73.433 794.896 -72.6344 795.425 -71.8358C795.954 -71.0373 796.701 -70.1558 797.665 -69.1913C798.661 -68.1957 799.563 -67.4282 800.372 -66.8889C801.17 -66.36 801.969 -66.0904 802.767 -66.08C803.566 -66.0696 804.339 -66.4378 805.085 -67.1845C805.832 -67.9312 806.2 -68.7038 806.19 -69.5024C806.179 -70.3009 805.91 -71.0995 805.381 -71.8981C804.842 -72.707 804.074 -73.6093 803.079 -74.6049Z" fill="url(#paint57_linear_2696_18228)"/>
<path d="M806.178 -77.7039C804.394 -79.4877 803.284 -81.147 802.849 -82.6819C802.413 -84.2168 802.906 -85.6946 804.326 -87.1155C805.747 -88.5363 807.225 -89.0289 808.76 -88.5933C810.295 -88.1577 811.954 -87.0481 813.738 -85.2643C815.553 -83.4494 816.683 -81.7693 817.129 -80.224C817.575 -78.6787 817.088 -77.1957 815.667 -75.7749C814.236 -74.3437 812.748 -73.8511 811.202 -74.2971C809.667 -74.7534 807.993 -75.889 806.178 -77.7039ZM812.665 -84.1909C811.7 -85.1554 810.819 -85.9021 810.02 -86.431C809.221 -86.9599 808.423 -87.2295 807.624 -87.2399C806.826 -87.2503 806.053 -86.8821 805.306 -86.1354C804.56 -85.3887 804.192 -84.6161 804.202 -83.8175C804.212 -83.019 804.482 -82.2204 805.011 -81.4218C805.54 -80.6233 806.286 -79.7417 807.251 -78.7773C808.247 -77.7816 809.149 -77.0142 809.958 -76.4749C810.756 -75.946 811.555 -75.6764 812.353 -75.666C813.152 -75.6556 813.925 -76.0238 814.671 -76.7705C815.418 -77.5172 815.786 -78.2898 815.776 -79.0884C815.765 -79.8869 815.496 -80.6855 814.967 -81.4841C814.428 -82.293 813.66 -83.1953 812.665 -84.1909Z" fill="url(#paint58_linear_2696_18228)"/>
<path d="M815.008 -95.5256L814.028 -96.5057L816.672 -99.1502L827.826 -87.9963L826.722 -86.8918L816.548 -97.0657L815.008 -95.5256Z" fill="url(#paint59_linear_2696_18228)"/>
<path d="M824.575 -96.1011C822.791 -97.8849 821.681 -99.5442 821.246 -101.079C820.81 -102.614 821.303 -104.092 822.724 -105.513C824.144 -106.933 825.622 -107.426 827.157 -106.991C828.692 -106.555 830.351 -105.445 832.135 -103.661C833.95 -101.847 835.081 -100.166 835.526 -98.6212C835.972 -97.0759 835.485 -95.5929 834.064 -94.1721C832.633 -92.7409 831.145 -92.2483 829.6 -92.6943C828.065 -93.1506 826.39 -94.2862 824.575 -96.1011ZM831.062 -102.588C830.097 -103.553 829.216 -104.299 828.417 -104.828C827.619 -105.357 826.82 -105.627 826.022 -105.637C825.223 -105.647 824.45 -105.279 823.704 -104.533C822.957 -103.786 822.589 -103.013 822.599 -102.215C822.61 -101.416 822.879 -100.618 823.408 -99.819C823.937 -99.0205 824.684 -98.139 825.648 -97.1745C826.644 -96.1789 827.546 -95.4114 828.355 -94.8721C829.154 -94.3432 829.952 -94.0736 830.751 -94.0632C831.549 -94.0528 832.322 -94.421 833.069 -95.1677C833.815 -95.9144 834.183 -96.687 834.173 -97.4856C834.163 -98.2841 833.893 -99.0827 833.364 -99.8813C832.825 -100.69 832.057 -101.592 831.062 -102.588Z" fill="url(#paint60_linear_2696_18228)"/>
<path d="M834.161 -105.687C832.377 -107.471 831.267 -109.13 830.832 -110.665C830.396 -112.2 830.889 -113.678 832.31 -115.099C833.73 -116.519 835.208 -117.012 836.743 -116.577C838.278 -116.141 839.937 -115.031 841.721 -113.247C843.536 -111.433 844.667 -109.752 845.112 -108.207C845.558 -106.662 845.071 -105.179 843.65 -103.758C842.219 -102.327 840.731 -101.834 839.186 -102.28C837.651 -102.737 835.976 -103.872 834.161 -105.687ZM840.648 -112.174C839.683 -113.139 838.802 -113.885 838.003 -114.414C837.205 -114.943 836.406 -115.213 835.608 -115.223C834.809 -115.233 834.036 -114.865 833.29 -114.119C832.543 -113.372 832.175 -112.599 832.185 -111.801C832.196 -111.002 832.465 -110.204 832.994 -109.405C833.523 -108.606 834.27 -107.725 835.234 -106.76C836.23 -105.765 837.132 -104.997 837.941 -104.458C838.74 -103.929 839.538 -103.66 840.337 -103.649C841.135 -103.639 841.908 -104.007 842.655 -104.754C843.401 -105.5 843.769 -106.273 843.759 -107.072C843.749 -107.87 843.479 -108.669 842.95 -109.467C842.411 -110.276 841.643 -111.178 840.648 -112.174Z" fill="url(#paint61_linear_2696_18228)"/>

</g>
</g>
<defs>
<linearGradient id="paint0_linear_2696_18228" x1="402.998" y1="327" x2="736" y2="-4.50016" gradientUnits="userSpaceOnUse">
<stop stop-color="#714EF5"/>
<stop offset="0.604167" stop-color="#714EF5" stop-opacity="0"/>
</linearGradient>
<linearGradient id="paint1_linear_2696_18228" x1="427.002" y1="333.502" x2="566.595" y2="126.229" gradientUnits="userSpaceOnUse">
<stop stop-color="#79F5BA"/>
<stop offset="1" stop-color="#79F5BA" stop-opacity="0"/>
</linearGradient>
<linearGradient id="paint2_linear_2696_18228" x1="394.998" y1="339" x2="847.998" y2="-86.4997" gradientUnits="userSpaceOnUse">
<stop stop-color="#714EF5"/>
<stop offset="0.805404" stop-color="#B5A2FB"/>
</linearGradient>
<linearGradient id="paint3_linear_2696_18228" x1="394.998" y1="339" x2="847.998" y2="-86.4997" gradientUnits="userSpaceOnUse">
<stop stop-color="#714EF5"/>
<stop offset="0.805404" stop-color="#B5A2FB"/>
</linearGradient>
<linearGradient id="paint4_linear_2696_18228" x1="394.998" y1="339" x2="847.998" y2="-86.4997" gradientUnits="userSpaceOnUse">
<stop stop-color="#714EF5"/>
<stop offset="0.805404" stop-color="#B5A2FB"/>
</linearGradient>
<linearGradient id="paint5_linear_2696_18228" x1="394.998" y1="339" x2="847.998" y2="-86.4997" gradientUnits="userSpaceOnUse">
<stop stop-color="#714EF5"/>
<stop offset="0.805404" stop-color="#B5A2FB"/>
</linearGradient>
<linearGradient id="paint6_linear_2696_18228" x1="394.998" y1="339" x2="847.998" y2="-86.4997" gradientUnits="userSpaceOnUse">
<stop stop-color="#714EF5"/>
<stop offset="0.805404" stop-color="#B5A2FB"/>
</linearGradient>
<linearGradient id="paint7_linear_2696_18228" x1="394.998" y1="339" x2="847.998" y2="-86.4997" gradientUnits="userSpaceOnUse">
<stop stop-color="#714EF5"/>
<stop offset="0.805404" stop-color="#B5A2FB"/>
</linearGradient>
<linearGradient id="paint8_linear_2696_18228" x1="394.998" y1="339" x2="847.998" y2="-86.4997" gradientUnits="userSpaceOnUse">
<stop stop-color="#714EF5"/>
<stop offset="0.805404" stop-color="#B5A2FB"/>
</linearGradient>
<linearGradient id="paint9_linear_2696_18228" x1="394.998" y1="339" x2="847.998" y2="-86.4997" gradientUnits="userSpaceOnUse">
<stop stop-color="#714EF5"/>
<stop offset="0.805404" stop-color="#B5A2FB"/>
</linearGradient>
<linearGradient id="paint10_linear_2696_18228" x1="394.998" y1="339" x2="847.998" y2="-86.4997" gradientUnits="userSpaceOnUse">
<stop stop-color="#714EF5"/>
<stop offset="0.805404" stop-color="#B5A2FB"/>
</linearGradient>
<linearGradient id="paint11_linear_2696_18228" x1="394.998" y1="339" x2="847.998" y2="-86.4997" gradientUnits="userSpaceOnUse">
<stop stop-color="#714EF5"/>
<stop offset="0.805404" stop-color="#B5A2FB"/>
</linearGradient>
<linearGradient id="paint12_linear_2696_18228" x1="394.998" y1="339" x2="847.998" y2="-86.4997" gradientUnits="userSpaceOnUse">
<stop stop-color="#714EF5"/>
<stop offset="0.805404" stop-color="#B5A2FB"/>
</linearGradient>
<linearGradient id="paint13_linear_2696_18228" x1="394.998" y1="339" x2="847.998" y2="-86.4997" gradientUnits="userSpaceOnUse">
<stop stop-color="#714EF5"/>
<stop offset="0.805404" stop-color="#B5A2FB"/>
</linearGradient>
<linearGradient id="paint14_linear_2696_18228" x1="394.998" y1="339" x2="847.998" y2="-86.4997" gradientUnits="userSpaceOnUse">
<stop stop-color="#714EF5"/>
<stop offset="0.805404" stop-color="#B5A2FB"/>
</linearGradient>
<linearGradient id="paint15_linear_2696_18228" x1="394.998" y1="339" x2="847.998" y2="-86.4997" gradientUnits="userSpaceOnUse">
<stop stop-color="#714EF5"/>
<stop offset="0.805404" stop-color="#B5A2FB"/>
</linearGradient>
<linearGradient id="paint16_linear_2696_18228" x1="394.998" y1="339" x2="847.998" y2="-86.4997" gradientUnits="userSpaceOnUse">
<stop stop-color="#714EF5"/>
<stop offset="0.805404" stop-color="#B5A2FB"/>
</linearGradient>
<linearGradient id="paint17_linear_2696_18228" x1="394.998" y1="339" x2="847.998" y2="-86.4997" gradientUnits="userSpaceOnUse">
<stop stop-color="#714EF5"/>
<stop offset="0.805404" stop-color="#B5A2FB"/>
</linearGradient>
<linearGradient id="paint18_linear_2696_18228" x1="394.998" y1="339" x2="847.998" y2="-86.4997" gradientUnits="userSpaceOnUse">
<stop stop-color="#714EF5"/>
<stop offset="0.805404" stop-color="#B5A2FB"/>
</linearGradient>
<linearGradient id="paint19_linear_2696_18228" x1="394.998" y1="339" x2="847.998" y2="-86.4997" gradientUnits="userSpaceOnUse">
<stop stop-color="#714EF5"/>
<stop offset="0.805404" stop-color="#B5A2FB"/>
</linearGradient>
<linearGradient id="paint20_linear_2696_18228" x1="394.998" y1="339" x2="847.998" y2="-86.4997" gradientUnits="userSpaceOnUse">
<stop stop-color="#714EF5"/>
<stop offset="0.805404" stop-color="#B5A2FB"/>
</linearGradient>
<linearGradient id="paint21_linear_2696_18228" x1="394.998" y1="339" x2="847.998" y2="-86.4997" gradientUnits="userSpaceOnUse">
<stop stop-color="#714EF5"/>
<stop offset="0.805404" stop-color="#B5A2FB"/>
</linearGradient>
<linearGradient id="paint22_linear_2696_18228" x1="394.998" y1="339" x2="847.998" y2="-86.4997" gradientUnits="userSpaceOnUse">
<stop stop-color="#714EF5"/>
<stop offset="0.805404" stop-color="#B5A2FB"/>
</linearGradient>
<linearGradient id="paint23_linear_2696_18228" x1="394.998" y1="339" x2="847.998" y2="-86.4997" gradientUnits="userSpaceOnUse">
<stop stop-color="#714EF5"/>
<stop offset="0.805404" stop-color="#B5A2FB"/>
</linearGradient>
<linearGradient id="paint24_linear_2696_18228" x1="394.998" y1="339" x2="847.998" y2="-86.4997" gradientUnits="userSpaceOnUse">
<stop stop-color="#714EF5"/>
<stop offset="0.805404" stop-color="#B5A2FB"/>
</linearGradient>
<linearGradient id="paint25_linear_2696_18228" x1="394.998" y1="339" x2="847.998" y2="-86.4997" gradientUnits="userSpaceOnUse">
<stop stop-color="#714EF5"/>
<stop offset="0.805404" stop-color="#B5A2FB"/>
</linearGradient>
<linearGradient id="paint26_linear_2696_18228" x1="394.998" y1="339" x2="847.998" y2="-86.4997" gradientUnits="userSpaceOnUse">
<stop stop-color="#714EF5"/>
<stop offset="0.805404" stop-color="#B5A2FB"/>
</linearGradient>
<linearGradient id="paint27_linear_2696_18228" x1="394.998" y1="339" x2="847.998" y2="-86.4997" gradientUnits="userSpaceOnUse">
<stop stop-color="#714EF5"/>
<stop offset="0.805404" stop-color="#B5A2FB"/>
</linearGradient>
<linearGradient id="paint28_linear_2696_18228" x1="394.998" y1="339" x2="847.998" y2="-86.4997" gradientUnits="userSpaceOnUse">
<stop stop-color="#714EF5"/>
<stop offset="0.805404" stop-color="#B5A2FB"/>
</linearGradient>
<linearGradient id="paint29_linear_2696_18228" x1="394.998" y1="339" x2="847.998" y2="-86.4997" gradientUnits="userSpaceOnUse">
<stop stop-color="#714EF5"/>
<stop offset="0.805404" stop-color="#B5A2FB"/>
</linearGradient>
<linearGradient id="paint30_linear_2696_18228" x1="394.998" y1="339" x2="847.998" y2="-86.4997" gradientUnits="userSpaceOnUse">
<stop stop-color="#714EF5"/>
<stop offset="0.805404" stop-color="#B5A2FB"/>
</linearGradient>
<linearGradient id="paint31_linear_2696_18228" x1="394.998" y1="339" x2="847.998" y2="-86.4997" gradientUnits="userSpaceOnUse">
<stop stop-color="#714EF5"/>
<stop offset="0.805404" stop-color="#B5A2FB"/>
</linearGradient>
<linearGradient id="paint32_linear_2696_18228" x1="394.998" y1="339" x2="847.998" y2="-86.4997" gradientUnits="userSpaceOnUse">
<stop stop-color="#714EF5"/>
<stop offset="0.805404" stop-color="#B5A2FB"/>
</linearGradient>
<linearGradient id="paint33_linear_2696_18228" x1="394.998" y1="339" x2="847.998" y2="-86.4997" gradientUnits="userSpaceOnUse">
<stop stop-color="#714EF5"/>
<stop offset="0.805404" stop-color="#B5A2FB"/>
</linearGradient>
<linearGradient id="paint34_linear_2696_18228" x1="394.998" y1="339" x2="847.998" y2="-86.4997" gradientUnits="userSpaceOnUse">
<stop stop-color="#714EF5"/>
<stop offset="0.805404" stop-color="#B5A2FB"/>
</linearGradient>
<linearGradient id="paint35_linear_2696_18228" x1="394.998" y1="339" x2="847.998" y2="-86.4997" gradientUnits="userSpaceOnUse">
<stop stop-color="#714EF5"/>
<stop offset="0.805404" stop-color="#B5A2FB"/>
</linearGradient>
<linearGradient id="paint36_linear_2696_18228" x1="394.998" y1="339" x2="847.998" y2="-86.4997" gradientUnits="userSpaceOnUse">
<stop stop-color="#714EF5"/>
<stop offset="0.805404" stop-color="#B5A2FB"/>
</linearGradient>
<linearGradient id="paint37_linear_2696_18228" x1="394.998" y1="339" x2="847.998" y2="-86.4997" gradientUnits="userSpaceOnUse">
<stop stop-color="#714EF5"/>
<stop offset="0.805404" stop-color="#B5A2FB"/>
</linearGradient>
<linearGradient id="paint38_linear_2696_18228" x1="394.998" y1="339" x2="847.998" y2="-86.4997" gradientUnits="userSpaceOnUse">
<stop stop-color="#714EF5"/>
<stop offset="0.805404" stop-color="#B5A2FB"/>
</linearGradient>
<linearGradient id="paint39_linear_2696_18228" x1="394.998" y1="339" x2="847.998" y2="-86.4997" gradientUnits="userSpaceOnUse">
<stop stop-color="#714EF5"/>
<stop offset="0.805404" stop-color="#B5A2FB"/>
</linearGradient>
<linearGradient id="paint40_linear_2696_18228" x1="394.998" y1="339" x2="847.998" y2="-86.4997" gradientUnits="userSpaceOnUse">
<stop stop-color="#714EF5"/>
<stop offset="0.805404" stop-color="#B5A2FB"/>
</linearGradient>
<linearGradient id="paint41_linear_2696_18228" x1="394.998" y1="339" x2="847.998" y2="-86.4997" gradientUnits="userSpaceOnUse">
<stop stop-color="#714EF5"/>
<stop offset="0.805404" stop-color="#B5A2FB"/>
</linearGradient>
<linearGradient id="paint42_linear_2696_18228" x1="394.998" y1="339" x2="847.998" y2="-86.4997" gradientUnits="userSpaceOnUse">
<stop stop-color="#714EF5"/>
<stop offset="0.805404" stop-color="#B5A2FB"/>
</linearGradient>
<linearGradient id="paint43_linear_2696_18228" x1="394.998" y1="339" x2="847.998" y2="-86.4997" gradientUnits="userSpaceOnUse">
<stop stop-color="#714EF5"/>
<stop offset="0.805404" stop-color="#B5A2FB"/>
</linearGradient>
<linearGradient id="paint44_linear_2696_18228" x1="394.998" y1="339" x2="847.998" y2="-86.4997" gradientUnits="userSpaceOnUse">
<stop stop-color="#714EF5"/>
<stop offset="0.805404" stop-color="#B5A2FB"/>
</linearGradient>
<linearGradient id="paint45_linear_2696_18228" x1="394.998" y1="339" x2="847.998" y2="-86.4997" gradientUnits="userSpaceOnUse">
<stop stop-color="#714EF5"/>
<stop offset="0.805404" stop-color="#B5A2FB"/>
</linearGradient>
<linearGradient id="paint46_linear_2696_18228" x1="394.998" y1="339" x2="847.998" y2="-86.4997" gradientUnits="userSpaceOnUse">
<stop stop-color="#714EF5"/>
<stop offset="0.805404" stop-color="#B5A2FB"/>
</linearGradient>
<linearGradient id="paint47_linear_2696_18228" x1="394.998" y1="339" x2="847.998" y2="-86.4997" gradientUnits="userSpaceOnUse">
<stop stop-color="#714EF5"/>
<stop offset="0.805404" stop-color="#B5A2FB"/>
</linearGradient>
<linearGradient id="paint48_linear_2696_18228" x1="394.998" y1="339" x2="847.998" y2="-86.4997" gradientUnits="userSpaceOnUse">
<stop stop-color="#714EF5"/>
<stop offset="0.805404" stop-color="#B5A2FB"/>
</linearGradient>
<linearGradient id="paint49_linear_2696_18228" x1="394.998" y1="339" x2="847.998" y2="-86.4997" gradientUnits="userSpaceOnUse">
<stop stop-color="#714EF5"/>
<stop offset="0.805404" stop-color="#B5A2FB"/>
</linearGradient>
<linearGradient id="paint50_linear_2696_18228" x1="394.998" y1="339" x2="847.998" y2="-86.4997" gradientUnits="userSpaceOnUse">
<stop stop-color="#714EF5"/>
<stop offset="0.805404" stop-color="#B5A2FB"/>
</linearGradient>
<linearGradient id="paint51_linear_2696_18228" x1="394.998" y1="339" x2="847.998" y2="-86.4997" gradientUnits="userSpaceOnUse">
<stop stop-color="#714EF5"/>
<stop offset="0.805404" stop-color="#B5A2FB"/>
</linearGradient>
<linearGradient id="paint52_linear_2696_18228" x1="394.998" y1="339" x2="847.998" y2="-86.4997" gradientUnits="userSpaceOnUse">
<stop stop-color="#714EF5"/>
<stop offset="0.805404" stop-color="#B5A2FB"/>
</linearGradient>
<linearGradient id="paint53_linear_2696_18228" x1="394.998" y1="339" x2="847.998" y2="-86.4997" gradientUnits="userSpaceOnUse">
<stop stop-color="#714EF5"/>
<stop offset="0.805404" stop-color="#B5A2FB"/>
</linearGradient>
<linearGradient id="paint54_linear_2696_18228" x1="394.998" y1="339" x2="847.998" y2="-86.4997" gradientUnits="userSpaceOnUse">
<stop stop-color="#714EF5"/>
<stop offset="0.805404" stop-color="#B5A2FB"/>
</linearGradient>
<linearGradient id="paint55_linear_2696_18228" x1="394.998" y1="339" x2="847.998" y2="-86.4997" gradientUnits="userSpaceOnUse">
<stop stop-color="#714EF5"/>
<stop offset="0.805404" stop-color="#B5A2FB"/>
</linearGradient>
<linearGradient id="paint56_linear_2696_18228" x1="394.998" y1="339" x2="847.998" y2="-86.4997" gradientUnits="userSpaceOnUse">
<stop stop-color="#714EF5"/>
<stop offset="0.805404" stop-color="#B5A2FB"/>
</linearGradient>
<linearGradient id="paint57_linear_2696_18228" x1="394.998" y1="339" x2="847.998" y2="-86.4997" gradientUnits="userSpaceOnUse">
<stop stop-color="#714EF5"/>
<stop offset="0.805404" stop-color="#B5A2FB"/>
</linearGradient>
<linearGradient id="paint58_linear_2696_18228" x1="394.998" y1="339" x2="847.998" y2="-86.4997" gradientUnits="userSpaceOnUse">
<stop stop-color="#714EF5"/>
<stop offset="0.805404" stop-color="#B5A2FB"/>
</linearGradient>
<linearGradient id="paint59_linear_2696_18228" x1="394.998" y1="339" x2="847.998" y2="-86.4997" gradientUnits="userSpaceOnUse">
<stop stop-color="#714EF5"/>
<stop offset="0.805404" stop-color="#B5A2FB"/>
</linearGradient>
<linearGradient id="paint60_linear_2696_18228" x1="394.998" y1="339" x2="847.998" y2="-86.4997" gradientUnits="userSpaceOnUse">
<stop stop-color="#714EF5"/>
<stop offset="0.805404" stop-color="#B5A2FB"/>
</linearGradient>
<linearGradient id="paint61_linear_2696_18228" x1="394.998" y1="339" x2="847.998" y2="-86.4997" gradientUnits="userSpaceOnUse">
<stop stop-color="#714EF5"/>
<stop offset="0.805404" stop-color="#B5A2FB"/>
</linearGradient>
</defs>
</svg>
